<svg viewBox="0 0 704 275" xmlns="http://www.w3.org/2000/svg">
    <g id="Page-1" stroke="none" stroke-width="1" fill="none" fill-rule="evenodd">
        <g id="Group" fill-rule="nonzero">
            <path d="M454.15,274.45 C445.95,272.85 442.05,262.2 446.75,254.15 C450.8,247.3 461.5,246.65 466.55,253 C470.65,258.1 469.9,267.35 465.1,271.55 C462.1,274.2 458.2,275.25 454.15,274.45 L454.15,274.45 Z M460.75,270.05 C462.9,268.85 464.5,265.35 464.55,261.65 C464.65,256.45 461.95,252.6 457.85,252.15 C451.2,251.4 447,259.95 450.55,267.1 C452.6,271.1 456.65,272.3 460.75,270.05 Z" id="Shape" fill="#005697"></path>
            <path d="M512.6,274.25 C504.5,272.45 499.95,266.75 499.7,258 C499.35,247.6 504.9,240.7 514.85,239.05 C517.7,238.55 518.95,238.6 521.95,239.2 C524,239.65 525.75,240.1 525.85,240.2 C526,240.35 525.85,241.2 525.55,242.15 L524.95,243.85 L522.35,243.15 C516.65,241.6 510.2,243.45 507.15,247.45 C505.1,250.1 504.35,252.8 504.35,257.25 C504.35,262.85 506.8,267.35 511.1,269.55 C513.65,270.85 519.1,271.25 522.4,270.35 C525.2,269.6 525.2,269.6 525.7,271.6 C526.1,273.3 525.4,273.7 520.65,274.45 C516.4,275.1 516.6,275.1 512.6,274.25 L512.6,274.25 Z" id="Path" fill="#005697"></path>
            <path d="M534.15,274.45 C531.7,273.75 529.6,271.35 529.25,268.8 C528.4,263.15 532.15,259.65 540.2,258.55 C542.3,258.25 544.15,258 544.25,258 C544.75,258 543.4,254.2 542.6,253.35 C541.15,251.95 537.1,251.65 534.2,252.75 C532.25,253.5 531.8,253.5 531.45,252.95 C529.85,250.45 532.65,248.85 538.75,248.8 C543.85,248.75 545.7,249.7 547.5,253.25 C548.7,255.6 548.75,256.25 548.85,265.1 L548.95,274.45 L547.2,274.4 C545.3,274.35 544.3,273.2 544.85,271.65 C545.1,270.85 545,270.9 543.95,271.8 C541.25,274.2 537.1,275.35 534.15,274.45 L534.15,274.45 Z M541.8,270.15 C543.35,269.15 544.1,267.4 544.2,264.45 C544.25,261.8 544.2,261.75 542.75,261.6 C541.95,261.5 540.1,261.65 538.65,262 C534.2,263 532.2,266.7 534.5,269.65 C536,271.55 539.3,271.75 541.8,270.15 L541.8,270.15 Z" id="Shape" fill="#005697"></path>
            <path d="M603.5,274.65 C599.55,274.05 596.45,271.8 594.65,268.1 C591.95,262.55 593.4,254.5 597.75,251.2 C599.8,249.65 603.4,248.5 606.2,248.5 C608.6,248.5 612.75,250.35 614.35,252.05 C617.3,255.3 618.45,261.2 617,266.25 C615.5,271.55 609.2,275.5 603.5,274.65 Z M608.5,270.4 C612.95,268.15 614.6,261.35 611.95,256.2 C610.35,253.15 608.15,251.85 604.8,252.15 C602.7,252.35 602.05,252.65 600.45,254.35 C596.05,259.1 597.25,268.1 602.7,270.55 C605.35,271.75 605.85,271.75 608.5,270.4 Z" id="Shape" fill="#005697"></path>
            <path d="M685,274.4 C682.7,273.75 681.55,272.7 680.4,270.05 C677.8,264.3 683.2,259 692.25,258.4 C694.7,258.2 694.75,258.15 694.65,256.75 C694.5,254.7 693.6,253.2 692.15,252.55 C690.5,251.8 687.2,251.9 684.75,252.75 C682.65,253.5 682.3,253.4 681.8,251.65 C681.5,250.7 681.8,250.45 684.25,249.55 C691.55,246.8 698.3,249.8 699.2,256.1 C699.35,257.3 699.5,261.85 699.6,266.25 L699.7,274.25 L697.7,274.25 C695.95,274.25 695.75,274.1 695.6,272.9 C695.4,271.25 694.95,271.15 693.75,272.5 C693.25,273.05 691.7,273.85 690.35,274.25 C687.5,275.1 687.4,275.1 685,274.4 Z M692.15,270.4 C693.85,269.5 695,266.9 695,264.05 L695,261.35 L692.1,261.6 C687.9,262 685.6,263.1 684.75,265.25 C684.1,266.8 684.05,267.2 684.7,268.75 C685.15,269.7 685.95,270.75 686.6,271 C687.85,271.5 690.65,271.2 692.15,270.4 L692.15,270.4 Z" id="Shape" fill="#005697"></path>
            <path d="M475.8,274.15 C475.65,273.95 475.5,269.05 475.5,263.15 L475.5,252.5 L473.75,252.5 C472.1,252.5 472,252.4 472,250.75 C472,249.1 472.1,249 473.75,249 C475.45,249 475.5,248.95 475.5,247.15 C475.5,240.55 480.35,235.9 486.15,236.85 C488.4,237.2 488.55,237.4 488.05,239.3 C487.7,240.6 487.55,240.7 485.55,240.55 C484.25,240.5 483,240.7 482.25,241.2 C480.95,242.05 480,244.7 480,247.4 L480,249 L483,249 L486,249 L486,250.75 L486,252.5 L483,252.5 L480,252.5 L479.9,263.35 L479.75,274.2 L477.95,274.3 C476.9,274.4 475.95,274.3 475.8,274.15 L475.8,274.15 Z" id="Path" fill="#005697"></path>
            <path d="M556.2,273.75 C556.1,273.5 556.05,265.15 556.1,255.25 L556.25,237.25 L558.5,237.25 L560.75,237.25 L560.9,254.75 C560.95,264.4 560.9,272.75 560.75,273.3 C560.55,274.2 560.15,274.4 558.45,274.35 C557.3,274.3 556.3,274.05 556.2,273.75 Z" id="Path" fill="#005697"></path>
            <path d="M568.8,274.15 C568.65,273.95 568.5,268.25 568.5,261.4 L568.5,249 L570.75,249 L573,249 L572.9,261.65 L572.75,274.25 L570.95,274.35 C569.95,274.4 569,274.3 568.8,274.15 L568.8,274.15 Z" id="Path" fill="#005697"></path>
            <path d="M581.25,274.1 C581.1,273.95 581,269.05 581,263.15 L581,252.5 L579.25,252.5 C577.6,252.5 577.5,252.4 577.5,250.75 C577.5,249.1 577.6,249 579.2,249 L580.9,249 L581.25,245.75 C581.9,239.6 586.45,235.8 591.8,237 C594.05,237.5 594.05,237.5 593.6,239.2 C593.25,240.5 593,240.6 590.7,240.7 C589.3,240.75 587.75,241.05 587.35,241.45 C586.4,242.2 585.5,245.05 585.5,247.4 L585.5,249 L588.5,249 L591.5,249 L591.5,250.75 L591.5,252.5 L588.5,252.5 L585.5,252.5 L585.5,263.5 L585.5,274.5 L583.5,274.4 C582.4,274.35 581.4,274.2 581.25,274.1 L581.25,274.1 Z" id="Path" fill="#005697"></path>
            <path d="M624,274.05 C624,273.9 623.95,268.2 623.85,261.35 L623.75,249 L625.65,249 C627.5,249 627.5,249 627.5,251 C627.5,252.1 627.65,253 627.8,253 C627.95,253 628.65,252.3 629.4,251.45 C630.8,249.75 633.25,248.5 635.15,248.5 C636.2,248.5 636.3,248.7 636.25,250.65 C636.2,252.75 636.2,252.75 634.25,252.9 C631.45,253.15 629.2,255.35 628.5,258.7 C628.2,260.1 628,263.95 628,267.25 C628.05,270.55 628.05,273.5 628.05,273.8 C628,274.35 624,274.6 624,274.05 L624,274.05 Z" id="Path" fill="#005697"></path>
            <path d="M641.25,274 C641.1,273.75 640.95,268.05 640.85,261.3 L640.75,249 L642.65,249 C644.15,249 644.5,249.2 644.5,249.95 C644.5,252.35 645.05,252.6 646.8,251.05 C650.7,247.6 656.3,247.75 659.55,251.3 C661.75,253.7 662.1,255.85 662.1,265.45 L662.1,274.25 L660.05,274.35 C658.9,274.4 658,274.25 658,274.1 C657.8,257.5 657.75,256.75 656.6,254.9 C653.75,250.35 646.95,252.05 645.45,257.65 C645.15,258.8 645,262.8 645.05,266.95 L645.2,274.25 L643.35,274.35 C642.35,274.35 641.4,274.2 641.25,274 L641.25,274 Z" id="Path" fill="#005697"></path>
            <path d="M670.25,274.15 C669.95,274.05 669.75,269.5 669.8,261.6 L669.85,249.25 L671.95,249.25 L674.05,249.25 L674.05,261.75 L674.1,274.25 L672.4,274.3 C671.5,274.3 670.55,274.25 670.25,274.15 L670.25,274.15 Z" id="Path" fill="#005697"></path>
            <path d="M569,244 C567.4,242.4 567.75,240.7 569.9,239.55 C571.7,238.6 573.5,240 573.5,242.25 C573.5,243.7 573.25,244.1 572.2,244.5 C570.45,245.2 570.15,245.15 569,244 Z" id="Path" fill="#005697"></path>
            <path d="M670.7,244.6 C667.9,242.75 670.15,238 673.15,239.55 C673.75,239.9 674.4,240.4 674.6,240.7 C676.05,242.85 672.85,246.05 670.7,244.6 L670.7,244.6 Z" id="Path" fill="#005697"></path>
            <path d="M73.3,221.75 C65.9,219.7 61.1,213.2 60.8,204.75 C60.4,195.5 64.15,188.2 70.85,185.15 C74.25,183.6 80.6,183.35 83.55,184.65 C88.9,187 92.45,193.4 92.3,200.5 L92.25,202.75 L78.55,202.85 L64.8,202.95 L64.75,204.1 C64.6,206.1 65.95,210.9 67.2,212.9 C68.75,215.35 69.8,216.25 72.75,217.55 C75.95,219 82.45,219.1 86.45,217.75 C88.7,217.05 89.2,217 89.55,217.55 C90.25,218.7 90.05,219.95 89.05,220.45 C86.1,222.05 77,222.8 73.3,221.75 L73.3,221.75 Z M88.1,197.5 C87.7,193.5 84.75,189.05 81.65,187.7 C79.65,186.85 76.05,186.8 73.3,187.6 C70.45,188.45 67.35,191.7 66.05,195.2 C64.3,199.9 63.45,199.55 76.65,199.4 L88.25,199.25 L88.1,197.5 L88.1,197.5 Z" id="Shape" fill="#005697"></path>
            <path d="M151.75,222.2 C148.2,221.35 146.7,219.9 145.55,216.4 C145.15,215.2 144.9,210 144.85,201.2 L144.75,187.85 L141.75,187.8 C138.75,187.75 138.75,187.75 138.6,186.15 L138.45,184.55 L141.6,184.4 L144.75,184.25 L144.8,181.5 C144.8,180 144.9,178.5 144.9,178.15 C145,177.65 147.5,176.5 148.5,176.5 C148.7,176.5 148.9,178.25 148.85,180.4 L148.85,184.25 L154.2,184.4 L159.55,184.55 L159.4,186.15 L159.25,187.75 L154.15,187.9 L149.05,188.05 L148.9,200.15 C148.75,214.2 148.95,215.95 151.15,217.8 C152.55,219 152.95,219.1 155.6,218.8 C158.4,218.45 158.5,218.5 158.8,219.75 C159,220.5 158.95,221.25 158.7,221.5 C158.15,222 153.1,222.5 151.75,222.2 L151.75,222.2 Z" id="Path" fill="#005697"></path>
            <path d="M172.25,222 C168.15,221.1 165.4,218.35 164.45,214.2 C163.25,209 166.2,203.65 171.7,201.05 C174.65,199.7 180.55,198.5 184.35,198.5 L187.15,198.5 L186.85,195.7 C186.45,191.85 185.1,189.55 182.45,188.1 C180.6,187.1 179.75,186.95 176.75,187.15 C174.65,187.25 172.25,187.8 170.8,188.4 C168.5,189.45 168.35,189.45 167.7,188.65 C167.35,188.15 167,187.5 167,187.2 C167,186.45 170.9,184.7 174.25,184 C181.35,182.55 187.45,185.2 189.8,190.75 C190.65,192.8 190.7,193.65 191.2,213.65 L191.4,221.55 L189.55,221.4 C187.7,221.25 187.65,221.2 187.55,218.1 L187.5,216.4 L185.05,218.6 C181.7,221.6 176.6,222.95 172.25,222 L172.25,222 Z M179.25,218.45 C180.45,218.15 182.35,217.15 183.45,216.2 C186.2,213.8 187.1,211.25 186.9,206 L186.75,201.75 L183.45,201.85 C177.1,202.05 171.8,203.95 169.9,206.65 C168.35,208.8 168.1,213.15 169.4,215.45 C171.1,218.6 174.55,219.65 179.25,218.45 L179.25,218.45 Z" id="Shape" fill="#005697"></path>
            <path d="M297.25,222.2 C291.95,220.75 290.95,220.3 288.8,218.45 C285.75,215.8 284.2,213.25 283.25,209.65 C280.7,199.95 284.6,189.1 291.9,185.3 C296.45,182.95 303.45,183.25 307.6,186 C311.5,188.6 314.3,195.05 313.9,200.5 L313.75,202.75 L300.15,202.75 L286.5,202.75 L286.5,204.55 C286.5,205.55 286.95,207.85 287.5,209.6 C288.6,213.2 291.4,216.4 294.75,217.75 C297.35,218.85 304.9,218.9 308,217.8 C310.95,216.8 310.95,216.8 311.5,218.3 C312.15,219.95 311.3,220.65 307.7,221.45 C305.25,222 298.35,222.5 297.25,222.2 L297.25,222.2 Z M309.75,197.15 C309.4,194.65 308,191.45 306.6,189.8 C304.35,187.25 298.35,186.2 294.6,187.8 C292.3,188.75 289.7,191.2 288.5,193.5 C287.4,195.65 286.5,198.85 286.9,199.2 C287.05,199.35 292.3,199.5 298.6,199.5 L310.05,199.5 L309.75,197.15 L309.75,197.15 Z" id="Shape" fill="#005697"></path>
            <path d="M328.25,222.05 C322.1,220.45 319.2,215.6 320.5,209.3 C321.2,205.9 323.6,203 327.15,201.3 C330.15,199.8 336.35,198.5 340.3,198.5 C343.35,198.5 343.4,198.45 342.45,194 C341.8,190.9 339.65,188.3 337.15,187.45 C334.6,186.65 329.1,187.2 326.45,188.5 C324.4,189.55 324.3,189.55 323.65,188.7 C323.3,188.2 323,187.5 323,187.15 C323,185.5 331.6,183.25 335.75,183.75 C340.7,184.35 343.65,186.45 345.55,190.7 C346.65,193.1 346.75,193.95 346.85,205 C346.9,211.45 347.05,217.85 347.25,219.15 L347.55,221.55 L345.65,221.4 C343.8,221.25 343.75,221.2 343.6,219.15 C343.5,217.95 343.3,217 343.15,217 C343,217 342.1,217.7 341.1,218.55 C337.75,221.5 332.05,223.05 328.25,222.05 L328.25,222.05 Z M337.6,217.4 C338.75,216.8 340.4,215.25 341.25,214.1 C342.7,212 342.75,211.7 342.75,206.85 L342.75,201.75 L339.3,201.85 C334.9,202 330.3,203.2 327.9,204.75 C323.05,207.95 323.1,215.4 328,218.1 C330.3,219.35 334.6,219.05 337.6,217.4 L337.6,217.4 Z" id="Shape" fill="#005697"></path>
            <path d="M381.5,221.4 C379.85,220.55 378.95,219.65 378.1,217.9 C377,215.65 376.95,215.1 376.85,201.75 L376.75,187.85 L373.5,187.8 L370.25,187.75 L370.25,186.25 C370.25,184.75 370.3,184.75 373.5,184.5 L376.75,184.25 L376.8,181.5 C376.85,180 376.9,178.5 376.95,178.15 C377,177.65 379.5,176.5 380.5,176.5 C380.7,176.5 380.85,178.25 380.85,180.4 L380.9,184.25 L386.05,184.5 C391.65,184.75 391.5,184.7 391.05,187.65 C391.05,187.85 388.75,188 386,188 L381,188 L380.9,199.9 C380.8,214.5 380.75,214.25 381.5,216.05 C382.4,218.25 384.6,219.2 387.8,218.8 C390.3,218.5 390.4,218.55 390.7,219.8 C390.9,220.55 390.85,221.35 390.65,221.55 C390.45,221.75 388.8,222.1 387,222.25 C384.2,222.55 383.45,222.4 381.5,221.4 L381.5,221.4 Z" id="Path" fill="#005697"></path>
            <path d="M576.7,221.6 C568.5,219.15 564,211.8 564.65,201.8 C565.25,192 570.45,185.35 578.5,184 C581.1,183.55 582.65,183.55 584.6,184 C591.1,185.35 594.55,189.55 595.95,197.65 C596.6,201.3 596.15,203.05 594.6,202.9 C594.15,202.85 588.05,202.9 581.05,202.9 L568.35,203 L568.65,205.5 C569.15,209.55 570.05,211.95 572.1,214.2 C576.25,218.95 583.15,220 591.85,217.25 C592.75,216.95 593.1,217.15 593.55,218.2 C594.35,219.9 593.9,220.35 590.45,221.25 C585.95,222.45 580.2,222.6 576.7,221.6 L576.7,221.6 Z M592,198.35 C592,196.2 590.5,192.05 589.15,190.45 C585.45,186.1 577.65,185.8 573.35,189.9 C570.9,192.2 568,198.3 568.9,199.2 C569.05,199.35 574.3,199.5 580.6,199.5 L592,199.5 L592,198.35 Z" id="Shape" fill="#005697"></path>
            <path d="M655.4,221.75 C643.95,218.95 638.65,205.15 644.5,193.5 C645.95,190.65 649.25,187.15 651.85,185.85 C656.3,183.55 663.75,182.95 668.5,184.55 C671.15,185.45 671.75,186.15 671,187.55 C670.65,188.2 670.3,188.8 670.25,188.9 C670.15,189 668.7,188.55 666.95,187.95 C661.2,186.05 653.85,187.55 650.5,191.35 C643.25,199.55 645.4,213.55 654.45,217.45 C657.65,218.8 662.4,219.1 665.7,218.15 C670.4,216.8 670.25,216.8 670.9,218.25 C671.25,218.95 671.5,219.6 671.5,219.7 C671.5,219.9 667.55,221.35 665.95,221.7 C662.9,222.35 658.05,222.4 655.4,221.75 L655.4,221.75 Z" id="Path" fill="#005697"></path>
            <path d="M683.1,221.45 C676.75,218.95 674.75,210.95 678.95,205.15 C681.6,201.5 689.75,198.5 697.15,198.5 L699.65,198.5 L699.35,195.7 C698.95,191.75 697.65,189.5 694.95,188.1 C693.05,187.1 692.25,186.95 689.15,187.15 C687.1,187.3 684.55,187.85 683.2,188.45 C680.7,189.55 680.35,189.5 679.75,187.6 C679.5,186.65 679.7,186.35 681.6,185.55 C688.75,182.5 695.85,183 699.6,186.85 C702.95,190.25 703.1,191.2 703.05,204.85 C703,212.9 703.15,217 703.5,217 C703.75,217 704,218.05 704,219.3 L704,221.55 L702.15,221.4 C700.25,221.25 700.25,221.25 700.1,218.85 L699.95,216.45 L697.5,218.65 C693.6,222.2 687.8,223.3 683.1,221.45 L683.1,221.45 Z M691.75,218.45 C694.35,217.8 697.55,215.2 698.7,212.8 C699.25,211.6 699.5,209.7 699.5,206.6 L699.5,202.1 L697.7,201.9 C694.55,201.55 689.4,202.45 686.25,204 C682.25,205.9 680.8,208.3 681.1,212.3 C681.55,217.55 685.7,219.95 691.75,218.45 L691.75,218.45 Z" id="Shape" fill="#005697"></path>
            <path d="M1.25,221 C1.05,220.7 1.05,219.85 1.2,219.1 C1.35,218.35 1.6,215.85 1.75,213.5 C2.2,206.65 2.5,202.8 3.25,193.65 C3.35,192.05 3.6,188.95 3.75,186.75 C4.2,179.65 4.65,173.35 4.9,170.35 C5,169.6 5.4,169.45 7.3,169.6 L9.6,169.75 L16.05,186.75 C19.6,196.1 23.35,206.3 24.35,209.4 C25.4,212.45 26.35,215 26.55,215 C26.7,215 27.1,214.1 27.45,213 C28.2,210.4 32.6,198.9 39,182.65 L44.15,169.5 L46.3,169.5 C47.5,169.5 48.55,169.7 48.7,169.9 C48.85,170.15 49.1,172.75 49.25,175.8 C49.4,178.8 49.65,182.25 49.75,183.5 C49.85,184.75 50.1,187.9 50.25,190.5 C50.4,193.1 50.65,196.25 50.75,197.5 C50.85,198.75 51.1,201.9 51.25,204.5 C51.6,210.05 51.9,214.6 52.25,218.65 L52.5,221.5 L50.5,221.5 C48.65,221.5 48.55,221.4 48.3,219.9 C48.2,219 48.1,217.8 48.1,217.25 C48.15,216.2 47.6,207.65 46.75,195 C46.15,186.95 46.05,184.75 46,180.1 C45.95,177.55 45.8,175.55 45.6,175.7 C45.45,175.85 43.6,180.55 41.55,186.1 C39.45,191.7 35.5,201.95 32.75,208.9 L27.75,221.55 L26.3,221.4 C24.85,221.25 24.7,220.95 19.15,206.25 C16.05,198 12.25,187.65 10.7,183.25 C9.2,178.9 7.9,175.25 7.85,175.2 C7.8,175.15 7.75,176.35 7.75,177.9 C7.75,181.4 6.85,197.2 6.25,204.25 C6.15,205.65 5.9,209.45 5.7,212.75 C5.4,218.2 5.25,220.05 5.05,221.15 C4.95,221.7 1.6,221.55 1.25,221 L1.25,221 Z" id="Path" fill="#005697"></path>
            <path d="M102,221.15 C102.1,218 101.55,186.05 101.45,185.5 C101.3,184.95 101.75,184.7 103.15,184.6 C104.95,184.45 105,184.5 105.1,186.1 C105.15,187 105.15,188.25 105.1,188.9 C105.1,189.5 105.15,190 105.3,190 C105.4,190 106.35,189.15 107.4,188.1 C110.45,185.05 113.5,183.85 117.95,183.8 C121.2,183.8 122.15,184 124.4,185.25 C127.4,186.9 129.6,189.65 130.5,192.95 C130.85,194.3 131.05,199.9 131.05,208.15 L131.1,221.25 L129.3,221.4 L127.5,221.55 L127.45,209.9 C127.4,196.7 127.35,196 126.25,193.2 C123.1,184.95 111.4,185.2 106.85,193.7 C105.8,195.65 105.75,196.45 105.6,208.65 L105.45,221.5 L103.7,221.5 C102.75,221.5 102,221.35 102,221.15 L102,221.15 Z" id="Path" fill="#005697"></path>
            <polygon id="Path" fill="#005697" points="203.1 194.15 203.25 166.75 205 166.75 206.75 166.75 206.75 194 206.75 221.25 204.85 221.4 203 221.55"></polygon>
            <path d="M236.5,195.5 L236.5,169.5 L238.5,169.5 L240.5,169.5 L240.5,180.75 L240.5,191.95 L254.55,192.1 C262.25,192.2 268.7,192.1 268.85,191.9 C268.95,191.65 269.1,186.6 269.15,180.65 L269.25,169.75 L271.15,169.6 L273,169.45 L273,195.5 L273,221.55 L271.15,221.4 L269.25,221.25 L269.15,208.75 L269.05,196.25 L254.8,196.1 L240.5,196 L240.5,208.75 L240.5,221.5 L238.5,221.5 L236.5,221.5 L236.5,195.5 Z" id="Path" fill="#005697"></path>
            <path d="M359,221.4 C359,221 358.95,167.7 359,167.25 C359,167 359.85,166.75 360.9,166.75 L362.75,166.75 L362.75,194 L362.75,221.25 L360.9,221.4 C359.85,221.5 359,221.5 359,221.4 Z" id="Path" fill="#005697"></path>
            <path d="M399.35,221.2 C398.9,220.7 398.9,167.9 399.4,167.25 C399.6,166.95 400.5,166.7 401.45,166.75 L403.15,166.75 L403.1,178.4 C403.05,184.75 403.15,190 403.25,190 C403.4,190 404.4,189.1 405.55,187.95 C408.55,184.95 411.5,183.75 415.75,183.8 C421.5,183.9 425.4,186.3 427.55,191.1 C428.7,193.65 428.75,194.25 428.9,207.65 L429.05,221.55 L427.15,221.4 L425.25,221.25 L425.15,208.95 C425.05,196.1 424.75,193.8 422.85,191 C421.1,188.35 418.8,187.25 415,187.25 C410.95,187.25 407.8,188.9 405.5,192.25 C403.35,195.4 402.95,198.35 403.05,210.5 L403.15,221.25 L401.45,221.4 C400.5,221.5 399.55,221.4 399.35,221.2 L399.35,221.2 Z" id="Path" fill="#005697"></path>
            <path d="M454.5,221 C454.5,220.55 471.35,174.5 472.75,171.15 C473.4,169.6 473.65,169.45 475.3,169.6 L477.15,169.75 L486.35,194.75 C491.35,208.5 495.6,220.15 495.8,220.65 C496.05,221.45 495.8,221.55 493.95,221.4 L491.85,221.25 L488.6,212.4 L485.35,203.5 L475,203.5 L464.7,203.5 L461.5,212.5 L458.3,221.5 L456.4,221.5 C455.35,221.5 454.5,221.3 454.5,221 Z M483.75,199.15 C481.8,194.2 476.85,180.5 476.2,178.1 C475.7,176.35 475.15,175.15 474.95,175.35 C474.75,175.55 474.25,177 473.85,178.5 C473.4,180 471.5,185.45 469.6,190.65 L466.1,200 L475.1,200 C483.5,200 484.1,199.95 483.75,199.15 L483.75,199.15 Z" id="Shape" fill="#005697"></path>
            <path d="M504,221.4 C504,221.3 503.95,212.95 503.85,202.85 L503.75,184.45 L505.5,184.6 C507.1,184.75 507.25,184.85 507.1,186.25 C507,187.1 507.15,188.3 507.4,188.95 C507.8,190.1 507.8,190.1 509.2,188.3 C511.3,185.5 515,183.85 519.3,183.8 C522.4,183.75 523.1,183.95 525.3,185.25 C527.45,186.6 529.35,188.75 530.2,190.65 C530.35,191.05 530.65,190.9 531.05,190.25 C532.55,187.75 536.05,185 538.8,184.2 C544.45,182.55 549.85,184.3 552.85,188.75 C555.1,192.05 555.5,195.2 555.5,208.9 L555.5,221.55 L553.75,221.4 L552,221.25 L551.85,209 C551.7,194.7 551.35,192.9 548.3,189.7 C546.7,188.05 545.75,187.5 543.95,187.25 C540.85,186.8 537.85,187.7 535.5,189.8 C532,192.95 531.9,193.5 531.85,208.2 L531.75,221.25 L529.85,221.25 L527.95,221.25 L527.85,208.25 L527.75,195.25 L526.25,192.25 C525.05,189.8 524.35,189.05 522.5,188.15 C518.9,186.3 515.25,186.9 512,189.8 C508.15,193.25 507.95,194.3 507.85,208.6 L507.75,221.25 L505.9,221.4 C504.85,221.5 504,221.5 504,221.4 L504,221.4 Z" id="Path" fill="#005697"></path>
            <path d="M605.4,206.55 C605.35,198.25 605.25,190 605.25,188.15 L605.25,184.75 L607,184.75 C608.5,184.75 608.75,184.9 608.8,186 C608.85,186.7 608.9,188 608.95,188.9 C609,190.35 610,191.3 610,189.9 C610,188.8 612.6,186 614.55,185 C616.65,183.9 620,183.4 621,184 C621.3,184.2 621.5,185 621.4,185.8 C621.25,187.15 621.05,187.25 618.6,187.55 C613.6,188.2 610.5,192.15 609.5,199.1 C609.2,201.1 609,206.9 609.05,212 L609.15,221.25 L607.35,221.4 L605.5,221.55 L605.4,206.55 L605.4,206.55 Z" id="Path" fill="#005697"></path>
            <polygon id="Path" fill="#005697" points="629 203 629 184.5 631 184.5 633 184.5 633 203 633 221.5 631 221.5 629 221.5"></polygon>
            <path d="M629.35,176.95 C626,174.95 628.55,169.6 632.25,171 C634,171.65 634.65,174.5 633.4,176.15 C632.55,177.2 630.5,177.65 629.35,176.95 L629.35,176.95 Z" id="Path" fill="#005697"></path>
            <path d="M546.25,156.8 C544.5,156.25 544.25,156 544.35,154.8 C544.6,151.35 547.65,147.25 554,141.9 C570.6,127.9 593.85,112.55 617.85,99.75 L621.4,97.85 L625.6,101.1 C631.1,105.4 638.5,111.95 638.5,112.5 C638.5,113.35 622.25,124.05 610.75,130.75 C597.9,138.3 576.8,148.45 565.75,152.4 C561,154.1 551.9,156.85 550,157.15 C549.05,157.3 547.35,157.15 546.25,156.8 Z" id="Path" fill="#005697"></path>
            <path d="M0,80.25 L0,4 L9.25,4 L18.5,4 L19.95,6.4 C21.4,8.7 39.8,37.4 46.15,47.25 C51.35,55.3 53.55,58.75 67.25,80.15 C74.4,91.35 80.35,100.5 80.5,100.5 C80.65,100.5 90.8,84.7 103.05,65.35 C115.35,46.05 129.15,24.35 133.75,17.15 L142.15,4 L151.3,4 L160.5,4 L160.5,80.25 L160.5,156.5 L150.75,156.5 L141,156.5 L140.9,98.45 L140.75,40.4 L135.15,49.3 C128.7,59.6 123.45,67.9 108.75,91.1 C95.55,111.9 89.15,122.1 84.25,129.9 C82.15,133.25 80.25,136 80.1,136 C79.9,136 77.05,131.75 73.75,126.6 C70.5,121.45 64,111.3 59.3,104 C54.65,96.7 47.3,85.25 43,78.5 C38.7,71.75 32.3,61.75 28.75,56.25 C25.25,50.75 21.7,45.2 20.85,43.9 C20,42.55 19.2,41.5 19.05,41.5 C18.9,41.5 18.75,67.3 18.75,98.85 L18.75,156.25 L9.4,156.4 L0,156.5 L0,80.25 L0,80.25 Z" id="Path" fill="#005697"></path>
            <path d="M204,156.15 C203.9,153.55 204,116.8 204.15,116.7 C204.2,116.6 208.45,116.95 213.5,117.4 L222.75,118.25 L222.9,137.4 L223,156.5 L213.5,156.5 C208.3,156.5 204,156.35 204,156.15 Z" id="Path" fill="#005697"></path>
            <path d="M329,156.4 C328.75,153.4 329.05,119.75 329.35,119.45 C329.55,119.25 333.4,118.9 337.85,118.75 C342.3,118.55 346.35,118.35 346.85,118.3 C347.7,118.25 347.75,119.4 347.9,137.4 L348,156.5 L338.5,156.5 C333.3,156.5 329,156.45 329,156.4 L329,156.4 Z" id="Path" fill="#005697"></path>
            <path d="M368,156.3 C368,155.55 388.5,115.8 389.1,115.45 C389.45,115.25 392.6,114.85 396,114.55 C399.45,114.25 403.75,113.85 405.65,113.7 C408,113.45 409,113.55 409,113.95 C409,114.25 404.25,123.95 398.4,135.5 L387.85,156.5 L377.9,156.5 C372.45,156.5 368,156.4 368,156.3 L368,156.3 Z" id="Path" fill="#005697"></path>
            <path d="M515.1,154.4 C512.4,148.7 501,125.45 495.8,115.05 C492.6,108.6 490.05,103.1 490.15,102.8 C490.3,102.5 493.5,101.7 497.3,101.05 C501.15,100.4 504.85,99.75 505.6,99.65 C506.95,99.4 507.1,99.6 512.55,110.8 C515.6,117.1 518.85,123.85 519.75,125.75 C520.65,127.7 524.35,135.3 527.95,142.65 C531.55,150 534.5,156.15 534.5,156.25 C534.5,156.4 530.35,156.5 525.3,156.5 L516.1,156.5 L515.1,154.4 Z" id="Path" fill="#005697"></path>
            <path d="M574.25,156.1 C574.55,155.85 577.45,154.6 580.75,153.25 C595.05,147.5 617.4,134.9 635.1,122.65 L637.45,121 L638.8,124.05 C640.35,127.5 643.8,130.9 648.05,133.25 C650.4,134.55 651.25,134.7 654.75,134.75 C658.25,134.75 659.1,134.55 661.4,133.3 C667.2,130.05 670.55,123.6 670.2,116.3 C669.95,111.5 666.95,106.65 662.8,104.25 C662.05,103.8 662.85,102.9 668.3,98 C675.75,91.3 679.9,86.55 682,82.35 C683.75,78.8 683.9,76.65 682.45,74.85 C681.1,73.1 678.8,72.55 672.5,72.45 C659.75,72.3 647.75,68.3 639.15,61.35 C637.4,59.95 636,58.65 636,58.45 C636,58.2 635.65,58.15 635.25,58.3 C634.75,58.5 634.5,58.3 634.55,57.7 C634.55,57.1 635.85,55.95 638.1,54.5 C640.05,53.25 643.4,50.55 645.55,48.5 C648.8,45.35 649.25,45.05 648.5,46.5 C647.4,48.6 642.15,53.75 638.9,55.95 C636.35,57.65 635.5,58.75 637.9,57.25 C644.05,53.35 649.35,48.35 651.8,44.25 C654.55,39.5 653.4,34.25 648.6,29.9 C642.8,24.65 629.95,19.35 613.75,15.5 C611.3,14.95 607.45,13.7 605.25,12.75 C603.05,11.8 599.25,10.55 596.8,10 C588.35,8 573.95,8.8 566.95,11.7 C566.35,11.95 565.75,11.15 564.35,8.3 C563.1,5.8 561.65,3.85 559.95,2.3 L557.4,0 L630.7,0 L704,0 L704,78 L704,156 L643.15,156 C609.65,156.05 580.35,156.15 578,156.3 C575.5,156.45 573.95,156.4 574.25,156.1 L574.25,156.1 Z" id="Path" fill="#005697"></path>
            <path d="M212,108.65 L203.75,108.5 L203.85,56.35 L203.95,4.25 L213.5,4.1 L223,4 L222.9,56.35 L222.75,108.75 L221.5,108.75 C220.8,108.8 216.55,108.7 212,108.65 Z" id="Path" fill="#005697"></path>
            <path d="M641.45,100.35 C633.15,93.45 631.45,91.5 633.6,91.5 C633.9,91.5 638.6,89.5 643.95,87.05 C656.1,81.5 658.2,80.7 663.2,79.45 C667.8,78.4 669.95,78.3 672.65,79.05 C674.85,79.65 674.95,80.25 673.25,83.9 C671.65,87.4 669.35,90.15 665.2,93.5 C663.35,95 660.4,97.45 658.7,98.9 C655.95,101.2 655.1,101.6 652.4,102.05 C650.65,102.35 648.6,102.9 647.8,103.3 C647,103.7 646.2,104 646.05,103.95 C645.9,103.95 643.8,102.3 641.45,100.35 L641.45,100.35 Z" id="Path" fill="#005697"></path>
            <path d="M328.85,53.45 L328.95,4.25 L338.5,4.1 L348,4 L347.9,52.3 L347.75,100.65 L346.5,100.8 C343.1,101.2 334.9,102.05 332,102.3 L328.75,102.6 L328.85,53.45 L328.85,53.45 Z" id="Path" fill="#005697"></path>
            <path d="M415.8,61.4 C424.7,43.7 434.9,23.55 438.35,16.65 L444.7,4 L452.75,4 L460.8,4 L464.5,11.6 C466.55,15.8 470.8,24.65 474,31.25 C477.25,37.85 480.95,45.5 482.25,48.25 C483.55,51 487,58.05 489.85,63.95 C492.7,69.85 494.9,74.75 494.8,74.9 C494.45,75.2 478.3,78.95 478.1,78.8 C477.85,78.55 461.95,46.45 457.1,36.35 C454.75,31.5 452.7,27.5 452.55,27.55 C452.4,27.55 445.4,41.4 437,58.3 C428.6,75.2 421.4,89.35 421,89.7 C420.45,90.2 401.8,93.55 399.9,93.500554 C399.7,93.500554 406.85,79.05 415.8,61.4 L415.8,61.4 Z" id="Path" fill="#005697"></path>
            <path d="M256.9,118.25 C256.8,118.15 253.9,118 250.5,118 C247.05,117.95 241.8,117.75 238.75,117.5 C235.75,117.25 230.65,116.95 227.5,116.75 C216.35,116.2 212.8,115.85 195.75,113.75 C181.65,112.05 178,111.45 178,110.95 C178,110.7 179.2,110.5 180.65,110.55 C187.15,110.7 249.6,110.1 252.5,109.8 C254.3,109.65 259.6,109.4 264.25,109.25 C268.95,109.05 274.1,108.85 275.75,108.75 C277.4,108.65 280.8,108.4 283.25,108.25 C285.75,108.1 289.15,107.85 290.9,107.75 C294.25,107.5 298,107.2 304.25,106.75 C306.45,106.6 310.3,106.25 312.75,106 C315.25,105.75 318.85,105.4 320.75,105.25 C322.7,105.1 325.05,104.85 326,104.75 C326.95,104.6 332.95,103.95 339.25,103.25 C345.6,102.55 351.75,101.9 353,101.75 C354.25,101.6 356.25,101.35 357.5,101.2 C368.7,99.95 397.1,95.8 414.25,92.95 C504.75,77.9 577.5,56.25 603.25,36.55 C611.45,30.3 615.25,23.8 613.55,18.95 C613.25,18.05 613.05,17.25 613.15,17.2 C613.7,16.65 626.75,20.7 634.75,23.9 C644.2,27.65 650.5,34.1 650.5,39.95 C650.5,44.8 645.9,51.1 638.75,56.1 C628.6,63.15 609.5,71.35 586.25,78.55 C562.35,86 538.75,91.6 501,98.75 C486.4,101.55 450.95,106.85 434,108.75 C430.3,109.2 423.45,110 418.75,110.55 C406.35,112 401,112.5 367.5,115.25 C366,115.35 362.5,115.6 359.75,115.75 C352.6,116.2 349.15,116.45 346,116.7 C344.5,116.85 338.75,117.15 333.25,117.35 C327.75,117.5 322.15,117.7 320.75,117.8 C315.7,118 257.1,118.4 256.9,118.25 L256.9,118.25 Z" id="Path" fill="#FCB034"></path>
        </g>
    </g>
</svg>