
<svg class="account-abuse" viewBox="0 0 500 500">
    <g stroke="none" stroke-width="1" fill="none" fill-rule="evenodd">
        <g stroke="#000000" stroke-width="8">
            <g transform="translate(45.000000, 85.000000)">
                <path d="M169,300.96 C168.026546,316.002323 156.042323,327.986546 141,328.96 C125.965444,327.969397 113.990603,315.994556 113,300.96 C112.712449,293.467367 115.576907,286.196922 120.897868,280.913968 C126.218829,275.631013 133.509621,272.818746 141,273.16 C148.493773,272.806372 155.791852,275.614631 161.115625,280.900377 C166.439399,286.186124 169.299901,293.463885 169,300.96 Z" id="Path"></path>
                <path d="M411.8,0 C383.8,0 355.8,23.12 351.16,50.92 L351.16,55.48 L323.16,208.32 C318.4,231.52 299.8,245.36 276.32,245.36 L94.48,245.36 M304.48,300.96 C303.489397,315.994556 291.514556,327.969397 276.48,328.96 C261.437677,327.986546 249.453454,316.002323 248.48,300.96 C248.48,285.496027 261.016027,272.96 276.48,272.96 C291.943973,272.96 304.48,285.496027 304.48,300.96 Z" ></path>
                <path class="shopping-card-circle" d="M131.8,60 C131.8,97.08 99.08,124.88 66.4,124.88 C49.0014512,125.364791 32.1635603,118.702406 19.8071281,106.44422 C7.45069596,94.1860351 0.654111889,77.4018644 1,60 C1,27.68 29,0 66.4,0 C99.08,0 131.8,27.68 131.8,60" id="Path"></path>
                <path d="M131.8,60 C131.8,97.08 99.08,124.88 66.4,124.88 C49.0014512,125.364791 32.1635603,118.702406 19.8071281,106.44422 C7.45069596,94.1860351 0.654111889,77.4018644 1,60 C1,27.68 29,0 66.4,0 C99.08,0 131.8,27.68 131.8,60 Z" ></path>
                <polyline class="shopping-card-checkmark" points="99.4 39 57.32 85.32 34 62.2"></polyline>
                <path class="shopping-card-basket" d="M131.48,55.48 C131.660855,56.9804949 131.767652,58.4889913 131.8,60 C131.8,97.08 99.08,124.88 66.4,124.88 C62.1956096,124.956268 57.9926789,124.661795 53.84,124 C61.64,171.32 101,208.32 155.12,208.32 L323.12,208.32 L351.12,55.48 L131.48,55.48 Z"></path>
            </g>
        </g>
    </g>
</svg>