
<svg class="carding" viewBox="0 0 500 500">
    <g stroke="none" stroke-width="1" fill="none" fill-rule="evenodd">
        <g>
            <g transform="translate(41.000000, 122.000000)">
                <path class="card-stripe" d="M0.52,73.68 L0.52,120.4 L309.88,120.4 C295.064397,109.134096 285.613616,92.2038625 283.8,73.68 L0.52,73.68 Z" stroke="#000000"></path>
                <circle stroke="#000000" cx="350.56" cy="67.12" r="67.12"></circle>
                <path class="circle-x" d="M332.72,86.92 L369,46.8" stroke="#000000"></path>
                <path class="circle-x" d="M369,86.92 L332.72,46.8" stroke="#000000"></path>
                <path class="card-symbols" d="M74.64,174.48 L85,170 L85.52,170 L85.88,170 C86.1303695,170.005928 86.3650361,170.123261 86.52,170.32 C86.779751,170.730314 86.9816544,171.174502 87.12,171.64 L88.2,175.04 C88.3111131,175.296326 88.3916673,175.56484 88.44,175.84 C88.44,176.12 88.44,176.32 88.44,176.44 C88.4481713,176.682803 88.326188,176.911522 88.12,177.04 C87.8482624,177.235045 87.5319458,177.358821 87.2,177.4 L76.32,179.76 L83.68,188 C83.8624993,188.155499 84.0120935,188.345892 84.12,188.56 C84.1745684,188.756278 84.1745684,188.963722 84.12,189.16 C84.0646006,189.381069 83.9381176,189.577821 83.76,189.72 L82.8,190.48 L80,192.56 C79.7364771,192.758636 79.4553007,192.932698 79.16,193.08 C78.9482347,193.116579 78.7317653,193.116579 78.52,193.08 C78.3122257,193.062927 78.1156557,192.978683 77.96,192.84 C77.7673597,192.643107 77.5932891,192.428866 77.44,192.2 L71.84,182.6 L66.24,192.2 C66.081874,192.448736 65.8937997,192.677112 65.68,192.88 C65.5234058,192.926687 65.3565942,192.926687 65.2,192.88 C64.9573635,192.855704 64.7241339,192.773387 64.52,192.64 C64.2011019,192.474212 63.8937388,192.287121 63.6,192.08 L60.8,190 C60.4428933,189.797435 60.1191007,189.541099 59.84,189.24 C59.6779882,189.096391 59.5776799,188.895775 59.56,188.68 C59.5054316,188.483722 59.5054316,188.276278 59.56,188.08 C59.6679065,187.865892 59.8175007,187.675499 60,187.52 L67.8,179.6 L57,177.16 C56.6578045,177.110551 56.330333,176.987749 56.04,176.8 C55.8342607,176.665864 55.7015367,176.444657 55.68,176.2 C55.68,176.2 55.68,175.84 55.68,175.56 C55.7226508,175.270651 55.8033493,174.988206 55.92,174.72 L57.08,171.4 C57.48,170.36 57.84,169.84 58.2,169.84 L58.72,169.84 L59.24,169.84 L69.28,174.48 L68.12,163.24 L68.12,162.84 C68.0737906,162.460227 68.2246258,162.083139 68.52,161.84 C69.0409364,161.634947 69.602151,161.552818 70.16,161.6 L73.72,161.6 C74.2646846,161.556143 74.8121546,161.638263 75.32,161.84 C75.6153742,162.083139 75.7662094,162.460227 75.72,162.84 L75.72,163.24 L74.64,174.48 Z" stroke="#000000"></path>
                <path class="card-symbols" d="M124.08,174.48 L134.32,170 L134.88,170 L135.2,170 C135.453344,169.993286 135.693365,170.113297 135.84,170.32 C136.099751,170.730314 136.301654,171.174502 136.44,171.64 L137.56,175.04 L137.8,175.84 C137.8,176.12 137.8,176.32 137.8,176.44 C137.793746,176.679226 137.675181,176.901535 137.48,177.04 C137.192818,177.233932 136.863887,177.357281 136.52,177.4 L125.68,179.76 L133,188 C133.170926,188.166261 133.318899,188.35459 133.44,188.56 C133.494568,188.756278 133.494568,188.963722 133.44,189.16 C133.384601,189.381069 133.258118,189.577821 133.08,189.72 L132.12,190.48 L129.28,192.56 C129.028606,192.775771 128.74523,192.951194 128.44,193.08 C128.228235,193.116579 128.011765,193.116579 127.8,193.08 C127.604755,193.060219 127.421724,192.975743 127.28,192.84 C127.07603,192.6535 126.900797,192.437828 126.76,192.2 L121.12,182.6 L115.52,192.2 C115.386716,192.454664 115.210846,192.684648 115,192.88 C114.829254,192.922351 114.650746,192.922351 114.48,192.88 C114.238921,192.848948 114.007162,192.76715 113.8,192.64 L112.92,192.08 L110.08,190 C109.743397,189.785257 109.434421,189.530015 109.16,189.24 C108.989252,189.098065 108.875595,188.899166 108.84,188.68 C108.803996,188.48162 108.803996,188.27838 108.84,188.08 C108.97409,187.883785 109.121081,187.696706 109.28,187.52 L116.76,179.32 L105.92,176.88 C105.565709,176.829032 105.225482,176.706551 104.92,176.52 C104.724819,176.381535 104.606254,176.159226 104.6,175.92 C104.569367,175.707766 104.569367,175.492234 104.6,175.28 C104.642651,174.990651 104.723349,174.708206 104.84,174.44 L106,171.12 C106.36,170.08 106.76,169.56 107.12,169.56 L107.64,169.56 L108.12,169.56 L118.2,174.2 L117,162.96 L117,162.56 C116.96312,162.172885 117.129677,161.794345 117.44,161.56 C117.95977,161.350601 118.522023,161.26832 119.08,161.32 L122.6,161.32 C123.157713,161.277014 123.717991,161.359006 124.24,161.56 C124.518692,161.815005 124.665947,162.18314 124.64,162.56 L124.64,162.96 L124.08,174.48 Z" stroke="#000000"></path>
                <path class="card-symbols" d="M173.56,174.48 L183.8,170 L184.32,170 L184.68,170 C184.930369,170.005928 185.165036,170.123261 185.32,170.32 C185.579751,170.730314 185.781654,171.174502 185.92,171.64 L187,175.04 C187.111113,175.296326 187.191667,175.56484 187.24,175.84 C187.24,176.12 187.24,176.32 187.24,176.44 C187.249617,176.673598 187.145213,176.897322 186.96,177.04 C186.672818,177.233932 186.343887,177.357281 186,177.4 L175.12,179.76 L182.6,188 C182.782499,188.155499 182.932093,188.345892 183.04,188.56 C183.094568,188.756278 183.094568,188.963722 183.04,189.16 C182.984601,189.381069 182.858118,189.577821 182.68,189.72 L181.72,190.48 L178.92,192.56 C178.656477,192.758636 178.375301,192.932698 178.08,193.08 C177.868235,193.116579 177.651765,193.116579 177.44,193.08 C177.242002,193.070869 177.055406,192.984747 176.92,192.84 C176.703102,192.655137 176.514435,192.439518 176.36,192.2 L170.76,182.6 L165.16,192.2 C165.014706,192.457788 164.825144,192.687971 164.6,192.88 C164.443406,192.926687 164.276594,192.926687 164.12,192.88 C163.877363,192.855704 163.644134,192.773387 163.44,192.64 C163.121102,192.474212 162.813739,192.287121 162.52,192.08 L159.72,190 C159.362893,189.797435 159.039101,189.541099 158.76,189.24 C158.597988,189.096391 158.49768,188.895775 158.48,188.68 C158.425432,188.483722 158.425432,188.276278 158.48,188.08 C158.587907,187.865892 158.737501,187.675499 158.92,187.52 L166.4,179.32 L155.52,176.88 C155.177804,176.830551 154.850333,176.707749 154.56,176.52 C154.354261,176.385864 154.221537,176.164657 154.2,175.92 C154.2,175.92 154.2,175.56 154.2,175.28 C154.242651,174.990651 154.323349,174.708206 154.44,174.44 L155.6,171.12 C156,170.08 156.36,169.56 156.76,169.56 L157.24,169.56 L157.76,169.56 L167.8,174.2 L166.64,162.96 L166.64,162.56 C166.593791,162.180227 166.744626,161.803139 167.04,161.56 C167.562009,161.359006 168.122287,161.277014 168.68,161.32 L172.24,161.32 C172.784685,161.276143 173.332155,161.358263 173.84,161.56 C174.135374,161.803139 174.286209,162.180227 174.24,162.56 L174.24,162.96 L173.56,174.48 Z" stroke="#000000"></path>
                <path class="card-border"d="M350.56,134.24 C324.322597,134.25316 300.485947,118.968169 289.550453,95.1182953 C278.614959,71.268422 282.588238,43.2321968 299.72,23.36 L36.48,23.36 C16.8849371,23.36 1,38.4615777 1,58.0566406 L1,219.76 C1,239.355063 16.8849371,255.24 36.48,255.24 L324.48,255.24 C344.075063,255.24 359.96,239.355063 359.96,219.76 L359.96,133.48 C356.847854,133.949041 353.707075,134.202976 350.56,134.24 Z" stroke="#000000"></path>
            </g>
        </g>
    </g>
</svg>