<svg class="marketing-fraud" viewBox="0 0 500 500">
    <g stroke="none" stroke-width="1" fill="none" fill-rule="evenodd">
        <g stroke="#231F20">
            <g transform="translate(101.000000, 53.000000)">
                <path class="avatar body" d="M228.4,47.08 C227.32,45.2 226.16,43.36 224.96,41.56 C203.148796,9.07964091 163.181029,-6.05320659 125.327412,3.83648238 C87.4737939,13.7261714 60.0156123,46.4748163 56.8790118,85.4730734 C53.7424112,124.471331 75.6135901,161.187499 111.4,177 L114.84,178.64"></path>
                <path class="avatar body" d="M233.6,211.6 C273.570986,239.371038 297.393486,284.968559 297.36,333.64 C297.36,415.76 -1.77635684e-15,415.76 -1.77635684e-15,333.64 C-0.0099735184,263.235162 49.3625567,202.475393 118.28,188.08"></path>
                <path class="mask border" d="M187.56,224.6 C165.815924,224.600003 144.963013,215.959465 129.591381,200.580331 C114.21975,185.201197 105.589388,164.344073 105.6,142.6 L105.59999,37.68 C159.269305,52.4478604 215.930695,52.4478604 269.6,37.68 L269.6,142.6 C269.600003,164.354684 260.955251,185.217769 245.568616,200.596903 C230.18198,215.976036 209.314682,224.610612 187.56,224.6 Z"></path>
                <path class="mask inner" d="M148.28,112.56 L169.72,112.56"></path>
                <path class="mask border" d="M180.68,167.36 L202.08,167.36"></path>
                <path class="mask inner" d="M214.04,112.56 L235.48,112.56"></path>
            </g>
        </g>
    </g>
</svg>