
<svg viewBox="0 0 596 149" version="1.1" xmlns="http://www.w3.org/2000/svg" xmlns:xlink="http://www.w3.org/1999/xlink">
    <g id="Page-1" stroke="none" stroke-width="1" fill="none" fill-rule="evenodd">
        <g id="perimeterx-logo-white">
            <polygon id="Path" fill="#EC1C24" points="0 149 540.565 149 540.565 0.928 0 0.928"></polygon>
            <path d="M53.347,100.868 C50.184,104.117 44.798,106.169 38.643,106.169 C32.06,106.169 26.502,104.544 21.629,98.218 L21.629,132.671 L12.824,132.671 L12.824,44.443 L21.629,44.443 L21.629,51.625 C26.502,45.213 32.06,43.674 38.642,43.674 C44.798,43.674 50.184,45.811 53.347,48.974 C59.502,55.215 60.699,65.303 60.699,74.879 C60.699,84.539 59.417,94.713 53.347,100.868 Z" id="Path" fill="#000000"></path>
            <path d="M125.075,77.358 L84.466,77.358 C84.466,90.78 90.707,98.474 102.249,98.474 C109.259,98.474 113.277,96.337 118.064,91.55 L124.049,96.849 C117.894,103.006 112.336,106.254 101.992,106.254 C86.09,106.254 75.66,96.594 75.66,75.05 C75.66,55.301 85.065,43.76 100.368,43.76 C115.927,43.76 125.075,55.13 125.075,73.254 L125.075,77.358 Z" id="Path" fill="#000000"></path>
            <path d="M176.199,56.156 C172.865,52.822 170.471,51.71 165.769,51.71 C156.963,51.71 151.321,58.806 151.321,68.039 L151.321,105.484 L142.515,105.484 L142.515,44.443 L151.321,44.443 L151.321,51.881 C154.655,46.837 161.238,43.674 168.248,43.674 C173.976,43.674 178.421,45.042 182.696,49.402 L176.199,56.156 Z" id="Path" fill="#000000"></path>
            <polygon id="Path" fill="#000000" points="195.605 105.484 204.411 105.484 204.411 44.443 195.605 44.443"></polygon>
            <path d="M199.965,27.601 C196.631,27.601 193.981,24.865 193.981,21.531 C193.981,18.198 196.631,15.462 199.965,15.462 C203.3,15.462 206.121,18.198 206.121,21.531 C206.121,24.865 203.3,27.601 199.965,27.601 Z" id="Path" fill="#000000"></path>
            <path d="M311.02,105.484 L302.214,105.484 L302.214,67.868 C302.214,57.096 296.486,51.625 287.424,51.625 C278.618,51.625 272.377,57.181 272.377,66.842 L272.377,105.399 L263.571,105.399 L263.571,67.782 C263.571,57.011 257.844,51.539 248.781,51.539 C239.719,51.539 233.735,57.096 233.735,67.782 L233.735,105.399 L224.929,105.399 L224.929,44.443 L233.735,44.443 L233.735,51.112 C238.009,46.153 243.994,43.674 250.748,43.674 C259.041,43.674 265.538,47.179 269.214,53.847 C273.831,47.179 280.584,43.674 289.048,43.674 C295.545,43.674 300.932,45.811 304.607,49.402 C308.882,53.591 311.105,59.319 311.105,66.415 L311.105,105.484 L311.02,105.484 Z" id="Path" fill="#000000"></path>
            <path d="M377.703,77.358 L337.095,77.358 C337.095,90.78 343.335,98.474 354.877,98.474 C361.887,98.474 365.905,96.337 370.692,91.55 L376.677,96.849 C370.521,103.006 364.965,106.254 354.62,106.254 C338.719,106.254 328.289,96.594 328.289,75.05 C328.289,55.301 337.693,43.76 352.996,43.76 C368.556,43.76 377.703,55.13 377.703,73.254 L377.703,77.358 Z" id="Path" fill="#000000"></path>
            <path d="M417.97,51.71 L405.146,51.71 L405.146,88.899 C405.146,94.456 407.711,97.79 413.354,97.79 L417.97,97.79 L417.97,105.484 L411.729,105.484 C401.47,105.484 396.341,98.133 396.341,89.156 L396.341,51.71 L388.731,51.71 L388.731,44.871 L396.341,44.871 L396.341,25.72 L405.146,25.72 L405.146,44.785 L417.97,44.785 L417.97,51.71 Z" id="Path" fill="#000000"></path>
            <path d="M479.182,77.358 L438.573,77.358 C438.573,90.78 444.814,98.474 456.355,98.474 C463.366,98.474 467.384,96.337 472.172,91.55 L478.156,96.849 C472.001,103.006 466.443,106.254 456.1,106.254 C440.198,106.254 429.768,96.594 429.768,75.05 C429.768,55.301 439.172,43.76 454.475,43.76 C470.034,43.76 479.182,55.13 479.182,73.254 L479.182,77.358 Z" id="Path" fill="#000000"></path>
            <path d="M530.221,56.156 C526.887,52.822 524.493,51.71 519.791,51.71 C510.985,51.71 505.343,58.806 505.343,68.039 L505.343,105.484 L496.537,105.484 L496.537,44.443 L505.343,44.443 L505.343,51.881 C508.677,46.837 515.26,43.674 522.27,43.674 C527.998,43.674 532.443,45.042 536.718,49.402 L530.221,56.156 Z" id="Path" fill="#000000"></path>
            <polyline id="Fill-8" fill="#EC1C24" points="584.594 105.484 570.146 81.803 555.526 105.484 544.84 105.484 565.272 74.365 545.694 44.443 556.381 44.443 570.146 67.013 583.738 44.443 594.425 44.443 574.848 74.365 595.28 105.484 584.594 105.484"></polyline>
            <path d="M36.847,51.71 C23.767,51.71 21.715,63.08 21.715,75.05 C21.715,86.932 23.767,98.388 36.847,98.388 C49.927,98.388 51.894,87.018 51.894,75.05 C51.894,63.08 49.927,51.71 36.847,51.71" id="Fill-4" fill="#EC1C24"></path>
            <path d="M100.368,51.282 C94.041,51.282 88.655,54.873 86.261,60.43 C84.894,63.764 84.637,65.645 84.466,70.604 L116.269,70.604 C116.013,65.645 115.756,63.764 114.474,60.43 C112.166,54.873 106.779,51.282 100.368,51.282" id="Fill-1" fill="#EC1C24"></path>
            <path d="M352.996,51.282 C346.67,51.282 341.283,54.873 338.89,60.43 C337.521,63.764 337.266,65.645 337.095,70.604 L368.897,70.604 C368.641,65.645 368.385,63.764 367.103,60.43 C364.708,54.873 359.322,51.282 352.996,51.282" id="Fill-2" fill="#EC1C24"></path>
            <path d="M454.475,51.282 C448.148,51.282 442.763,54.873 440.369,60.43 C439.001,63.764 438.744,65.645 438.573,70.604 L470.376,70.604 C470.12,65.645 469.863,63.764 468.581,60.43 C466.188,54.873 460.802,51.282 454.475,51.282" id="Fill-3" fill="#EC1C24"></path>
        </g>
    </g>
</svg>