
<svg class="scrapping" viewBox="0 0 500 500">
    <g stroke="none" stroke-width="1" fill="none" fill-rule="evenodd">
        <g>
            <g transform="translate(54.000000, 62.000000)">
                <path class="doc-border" d="M0.84,48.44 L121.48,14.24 C121.48,14.24 170.56,108 211.28,156.521213 L163,156.52 C104.801099,156.738288 50.4506338,127.470336 18.6,78.76 C12.56,69.44 6.56,59.32 0.84,48.44 Z" id="Path" stroke="#000000"></path>
                <path class="doc-edge" d="M69.32,129.16 C69.32,129.16 101.68,120.84 106.04,113.16 L131.96,153.88 C131.96,153.88 108.44,153.72 69.32,129.16 Z" stroke="#000000"></path>
                <path d="M44.68,70.8 L111,48.44" stroke="#000000"></path>
                <path d="M57.92,93.16 L103.32,77.84" stroke="#000000"></path>
                <path class="doc-border" d="M245.08,0.24 L359.64,4.24 C359.64,4.24 378.36,95.32 359.64,153.52 L247.64,153.52 C247.64,153.52 260.76,100.36 259,64 C257.837461,42.1338933 253.136436,20.6010402 245.08,0.24 Z" stroke="#000000"></path>
                <path d="M279.44,41.84 L337.32,41.84" stroke="#000000"></path>
                <path d="M285.48,102.88 L328.28,102.88" stroke="#000000"></path>
                <path d="M285.48,72.36 L337.32,72.36" stroke="#000000"></path>
                <path class="doc-border" d="M211.48,184.72 C211.48,184.72 137.04,173.92 104.6,214.96 C79,247.2 77.84,320.72 77.84,320.72 L167.8,373.6 C167.8,373.6 170.24,306.76 178.56,272 C193.16,211.72 211.48,184.72 211.48,184.72 Z" stroke="#000000"></path>
                <path d="M119.2,233.28 L159.68,236.56" stroke="#000000"></path>
                <path d="M112.72,265.68 L153.76,268.96" stroke="#000000"></path>
                <path d="M112.72,295.36 L151.04,301.84" stroke="#000000"></path>
                <path class="doc-border" d="M249.12,183.44 L349.48,183.44 C349.48,183.44 374.68,216.2 381.48,238.2 C386.515721,256.151306 390.271813,274.43719 392.72,292.92 C392.72,292.92 307.92,353.56 307.92,351.44 C307.92,349.32 303,292.92 284,250 C273.506834,227.237546 261.865194,205.022305 249.12,183.44 Z" stroke="#000000"></path>
                <path d="M304.96,228 L344.64,217.24" stroke="#000000"></path>
                <path d="M321.04,297 L367.24,276.28" stroke="#000000"></path>
                <path d="M315.4,260.2 L358.88,245.16" stroke="#000000"></path>
            </g>
        </g>
    </g>
</svg>