<svg class="shield" viewBox="0 0 500 500">
    <g id="shield" stroke="none" stroke-width="1" fill="none" fill-rule="evenodd">
        <g id="shield-container" fill-rule="nonzero">
            <path  class="shield-border" d="M249.300076,45.0082791 C217.54955,44.7056618 169.281728,54.8871237 104.496611,71.1763918 L104.496611,224.930358 C104.496611,330.833378 154.884968,407.523259 253.351584,455 C348.489385,407.523259 397,329.112853 397,223.209832 L397,68.9882554 C329.980914,52.6989873 282.145448,44.7056618 249.300076,45.0082791 Z M104.496611,71.1763918 L104.496611,224.930358" id="shield-border" stroke="#000000" stroke-width="5" stroke-linejoin="round"></path>
            <path class="shield-shadow" d="M255.014881,446 C290.588483,427.696371 318.506668,406.225332 338.101074,382.52648 C387.401333,322.899283 391.998938,257.894353 391.998938,257.894353 C391.998938,257.894353 391.999047,239.288165 391.999265,202.075789 C391.999382,182.184504 391.999627,140.385937 392,76.680085 L363.984057,70 C363.983683,130.859574 363.9845,177.177996 363.984384,196.180569 C363.984166,231.730354 363.984057,249.505247 363.984057,249.505247 C363.984057,249.505247 352.078114,367.725721 227,429.206627 L255.014881,446 Z" id="shield-shadow" fill="#D8D8D8"></path>
            <polyline  class="shield-checkmark" id="shield-checkmark" stroke="#DF3434" stroke-width="5" points="212 228.953722 250.199906 262 311 190"></polyline>
        </g>
    </g>
</svg>
