<svg xmlns="http://www.w3.org/2000/svg" viewBox="0 0 705 276">
 <g fill="#fbfdfe">
  <path d="M0 138 l0 -138 280.95 0 280.95 0 1.75 2 c1 1.05 2.40 3.15 3.15 4.60 0.70 1.45 1.40 2.70 1.45 2.80 0.10 0.10 1.45 -0.15 3.05 -0.55 11.90 -3 26 -2.05 36.45 2.40 2.20 0.95 6.05 2.20 8.50 2.75 20.75 4.95 33.95 11.35 38.15 18.45 1.20 2 1.35 2.85 1.35 6.55 0 4 -0.10 4.50 -1.75 7.20 -1.95 3.20 -5.95 7.20 -10.60 10.45 l-3 2.10 2.15 1.85 c2.95 2.50 11.25 6.60 16.50 8.10 4.75 1.35 11.95 2.30 17.55 2.30 7.30 0 9.40 1.50 9.40 6.75 0 5.70 -4.05 11.70 -14.05 20.70 l-5.30 4.80 1.95 2.15 c2.65 2.90 3.90 5.90 4.25 10.10 0.70 8.45 -2.70 15.85 -8.95 19.30 -2.50 1.35 -3 1.45 -8.15 1.45 -5.15 0 -5.65 -0.10 -8.20 -1.50 -3.70 -2.05 -7.65 -5.75 -8.80 -8.20 -0.50 -1.15 -1.10 -2.05 -1.30 -2.05 -0.20 0 -1.70 0.85 -3.30 1.90 -14.75 9.80 -26 16.45 -36.65 21.80 -5.10 2.55 -10.15 4.95 -11.25 5.40 -1.85 0.75 2.60 0.80 58.40 0.85 l60.35 0.05 0 32 0 32 -1.30 0 c-1.55 0 -1.40 1.15 0.20 1.40 l1.10 0.15 0 28 0 27.95 -352.50 0 -352.50 0 0 -138z m521.45 134.80 c-0.10 -0.10 -2.10 -0.30 -4.45 -0.40 -2.35 -0.15 -3.70 -0.10 -3 0.10 1.25 0.40 7.85 0.65 7.45 0.30z m-41.95 -11.05 l0 -10.75 3.15 -0.10 3.10 -0.10 -3.20 -0.15 -3.15 -0.20 0.20 -4.25 c0.20 -3.95 0.15 -4.20 -0.50 -2.90 -0.40 0.75 -0.85 2.65 -0.95 4.25 l-0.30 2.95 -1.80 0.10 -1.80 0.05 1.90 0.20 1.85 0.20 0 10.75 c0 9.20 0.10 10.70 0.75 10.70 0.65 0 0.75 -1.55 0.75 -10.75z m68.75 -0.35 c-0.10 -2.40 -0.55 -5.10 -0.95 -6 -0.75 -1.65 -0.75 -1.60 -0.45 1.25 0.30 2.75 0.25 2.85 -0.90 2.90 l-1.20 0 1.20 0.50 c1.15 0.45 1.20 0.60 0.95 4.95 -0.15 2.50 -0.10 4.50 0.15 4.50 0.25 0 0.50 0.75 0.50 1.65 0.05 0.85 0.30 0.05 0.55 -1.90 0.25 -1.90 0.30 -5.45 0.15 -7.85z m12 -5.90 c0 -14.55 -0.10 -16.75 -0.75 -16.75 -0.65 0 -0.75 2.25 -0.90 16.90 -0.10 15.95 -0.05 16.90 0.75 16.75 0.85 -0.15 0.90 -1.30 0.90 -16.90z m12.25 6 c0 -9.45 -0.10 -11 -0.75 -11 -0.65 0 -0.75 1.55 -0.75 11 0 9.45 0.10 11 0.75 11 0.65 0 0.75 -1.55 0.75 -11z m12.50 0.25 l0 -10.75 3.15 -0.10 3.10 -0.10 -3.20 -0.15 -3.15 -0.20 0.20 -4.25 c0.20 -3.65 0.15 -4.10 -0.40 -3.10 -0.35 0.65 -0.80 2.55 -1 4.30 l-0.30 3.10 -1.85 0.10 -1.80 0.05 1.90 0.20 1.85 0.20 0 10.75 c0 9.20 0.10 10.70 0.75 10.70 0.65 0 0.75 -1.55 0.75 -10.75z m42.65 2.90 c0.10 -4.35 0.40 -8.40 0.60 -9 0.25 -0.85 0.15 -1.15 -0.40 -1.15 -0.55 0 -0.85 -0.60 -1 -2.10 -0.10 -1.20 -0.20 2.85 -0.25 9 -0.05 6.25 0.10 11.10 0.35 11.10 0.25 0 0.55 -3.55 0.70 -7.85z m16.85 0.45 c0 -4.05 0.20 -8.15 0.50 -9.10 0.35 -1.20 0.30 -1.80 -0.05 -2.05 -0.30 -0.15 -0.75 -1.10 -0.95 -2 -0.25 -1.05 -0.40 2.70 -0.45 9.45 -0.05 7.10 0.15 11.10 0.45 11.10 0.30 0 0.50 -2.80 0.50 -7.40z m17 0.10 c0 -7.75 -0.50 -10.60 -2.15 -12.05 -1 -0.90 -1 -0.90 -0.05 0.60 0.80 1.25 0.95 2.65 1.10 10.10 0.10 4.75 0.40 8.65 0.65 8.65 0.25 0 0.45 -3.30 0.45 -7.30z m12 -3.70 c0 -7 -0.20 -11 -0.50 -11 -0.30 0 -0.50 4 -0.50 11 0 7 0.20 11 0.50 11 0.30 0 0.50 -4 0.50 -11z m25.40 2.90 c-0.15 -5.95 -0.40 -8.50 -0.90 -9.50 -0.70 -1.25 -0.75 -0.70 -0.60 5.85 0.10 4.60 0 7.55 -0.40 8.20 -0.45 0.85 -0.40 1.05 0.25 1.05 0.45 0 0.75 0.45 0.75 1.25 0 0.70 0.25 1.25 0.55 1.25 0.40 0 0.50 -2.40 0.35 -8.10z m-165.40 6.15 c-0.25 -0.55 -0.50 -2.20 -0.50 -3.65 -0.05 -2.20 -0.15 -2.50 -0.60 -1.70 -0.75 1.35 -0.60 3.50 0.35 5 1 1.50 1.50 1.75 0.75 0.35z m150.40 -1.05 c-0.25 -0.85 -0.40 -2.30 -0.30 -3.25 0.25 -2 -0.40 -1.85 -0.85 0.20 -0.20 0.95 0 2.05 0.50 3 1 2 1.35 2 0.65 0.05z m-176.55 -0.85 c-3.20 -3.40 -4.55 -10.45 -3.25 -16.80 0.80 -3.80 0.50 -3.85 -0.90 -0.15 -1.35 3.70 -1.20 8.40 0.40 11.80 1.15 2.55 4.10 6.50 4.80 6.50 0.15 0 -0.30 -0.60 -1.05 -1.35z m-57.90 -1.25 c-0.70 -1.25 -0.90 -8.30 -0.35 -10.65 0.30 -1.25 0.20 -1.20 -0.65 0.50 -0.75 1.55 -0.95 2.70 -0.80 5 0.20 2.70 1.40 6.25 2.15 6.25 0.10 0 -0.05 -0.50 -0.35 -1.10z m148.50 0 c-0.70 -1.25 -0.90 -8.30 -0.35 -10.65 0.30 -1.25 0.20 -1.15 -0.60 0.50 -1.25 2.60 -1.25 6.40 0 9.15 0.50 1.15 1.10 2.10 1.25 2.10 0.15 0 0 -0.50 -0.30 -1.10z m-129.95 -2.65 c0.65 -2.40 0.50 -5.55 -0.45 -7.95 -0.80 -2.05 -1.10 -1.40 -0.50 1.20 0.45 2 0.25 6.35 -0.40 8.70 -0.15 0.50 -0.05 0.80 0.25 0.65 0.25 -0.20 0.75 -1.35 1.10 -2.60z m148.45 0.30 c0.80 -2.50 0.65 -5.55 -0.45 -7.80 l-0.95 -2 0.35 1.75 c0.45 2.35 0.45 6.85 -0.05 9 -0.45 2.10 0.30 1.45 1.10 -0.95z m19.05 -14.05 c0 -0.65 -0.55 -0.65 -1.50 0 -0.60 0.40 -0.55 0.50 0.40 0.50 0.60 0 1.10 -0.20 1.10 -0.50z m55.90 -0.85 c-0.50 -0.10 -1.30 -0.10 -1.75 0 -0.50 0.15 -0.10 0.25 0.85 0.25 0.95 0 1.35 -0.10 0.90 -0.25z m-118.65 -7.65 c0.15 -0.30 -0.05 -0.65 -0.50 -0.80 -0.95 -0.40 -1.50 0 -1 0.75 0.40 0.70 1.10 0.70 1.50 0.05z m101.15 -0.40 c0.10 -0.35 -0.15 -0.60 -0.60 -0.60 -0.45 0 -0.80 0.35 -0.80 0.80 0 0.85 1.10 0.70 1.40 -0.20z m-153.25 -1.45 c-0.90 -0.10 -2.40 -0.10 -3.25 0 -0.90 0.10 -0.20 0.20 1.60 0.20 1.80 0 2.50 -0.10 1.65 -0.20z m-33.75 -2 c-0.50 -0.10 -1.40 -0.10 -2 0 -0.65 0.10 -0.25 0.20 0.85 0.20 1.10 0.05 1.60 -0.05 1.15 -0.20z m105 0 c-0.50 -0.10 -1.30 -0.10 -1.75 0 -0.50 0.15 -0.10 0.25 0.85 0.25 0.95 0 1.35 -0.10 0.90 -0.25z m-586.40 -32.30 c0.35 -5.45 0.50 -10 0.40 -10.15 -0.20 -0.20 -0.55 4.25 -1.65 20.80 -0.20 2.75 -0.15 2.95 0.20 1.25 0.25 -1.10 0.75 -6.45 1.05 -11.90z m45.50 4.05 c-0.65 -10.65 -1.05 -13.35 -0.75 -4.65 0.35 7.85 0.85 14.35 1.10 14.05 0.10 -0.10 -0.05 -4.35 -0.35 -9.40z m54.90 -17.25 c0.80 -1.45 0.75 -1.65 -0.40 -1.65 -0.80 0 -1 -0.45 -1.15 -2.60 -0.10 -1.45 -0.15 -0.65 -0.05 1.80 0.10 2.45 0.25 10.10 0.30 17 l0.10 12.55 0.30 -13 c0.15 -9.05 0.45 -13.35 0.90 -14.10z m24.45 8.20 c-0.05 -3.35 -0.15 -0.45 -0.15 6.40 0 6.90 0.10 9.60 0.15 6.10 0.10 -3.55 0.10 -9.15 0 -12.50z m76.10 -6 c-0.05 -13.25 -0.25 -24.75 -0.45 -25.60 -0.20 -0.80 -0.40 10.15 -0.45 24.40 -0.05 17.15 0.10 25.80 0.45 25.60 0.30 -0.20 0.50 -8.80 0.45 -24.40z m33.55 11.90 l0 -12.75 15.90 0.10 15.85 0.15 -0.20 12.30 c-0.10 8.60 0 12.45 0.40 12.65 0.40 0.25 0.55 -6.45 0.55 -24.20 0 -17.85 -0.15 -24.45 -0.55 -24.20 -0.40 0.20 -0.50 3.55 -0.40 11 0.15 6.70 0 10.80 -0.30 11.05 -0.25 0.25 -7.40 0.35 -15.85 0.25 l-15.40 -0.20 0 -11.20 c0 -7.15 -0.20 -11.20 -0.50 -11.20 -0.35 0 -0.50 8.50 -0.50 24.50 0 16 0.15 24.50 0.50 24.50 0.30 0 0.50 -4.60 0.50 -12.75z m122.45 -11.90 c-0.05 -13.25 -0.25 -24.75 -0.45 -25.60 -0.20 -0.80 -0.40 10.15 -0.45 24.40 -0.05 17.15 0.10 25.80 0.45 25.60 0.30 -0.20 0.50 -8.80 0.45 -24.40z m41.15 -2.20 c0.80 -1.60 0.80 -1.65 -0.15 -1.65 -0.90 0 -0.95 -0.50 -0.95 -11.55 0 -7.55 -0.15 -11.40 -0.50 -11.20 -0.60 0.35 -0.70 50.35 -0.10 50.95 0.20 0.20 0.45 -5.30 0.60 -12.30 0.20 -10.50 0.40 -12.95 1.10 -14.25z m24.50 3.10 c-0.25 -1.25 -0.45 2.60 -0.50 10.40 -0.10 6.80 0.05 12.65 0.25 13 0.55 0.80 0.80 -20.95 0.25 -23.40z m79.35 10.80 c-0.05 -8.45 0.05 -12.75 0.45 -13.70 0.75 -1.80 0.75 -1.85 -0.10 -1.85 -0.40 0 -0.85 -0.40 -0.95 -0.85 -0.15 -0.50 -0.25 5.90 -0.30 14.25 -0.05 10.80 0.10 15.05 0.50 14.80 0.35 -0.20 0.50 -4.20 0.40 -12.65z m23.95 -0.50 c-0.05 -7.05 0.05 -13.10 0.25 -13.40 0.30 -0.45 0.05 -0.65 -0.80 -0.65 -1.15 0 -1.20 0.10 -0.80 2.15 0.20 1.15 0.40 7.35 0.45 13.75 0 8.30 0.15 11.55 0.55 11.30 0.35 -0.20 0.50 -4.25 0.35 -13.15z m23.10 -10.35 c-0.45 -1.85 -0.45 -1.80 -0.25 0.80 0.15 1.50 0.30 7.35 0.35 13 l0.15 10.25 0.10 -11.05 c0.10 -6.25 -0.05 -11.90 -0.35 -13z m55.10 -2.05 c0.75 -2 0.70 -2.15 -0.10 -2.15 -0.65 0 -0.95 -0.70 -1.40 -2.85 l-0.55 -2.90 0.25 2.75 c0.10 1.50 0.25 9.15 0.30 17 l0.10 14.25 0.30 -12 c0.25 -8.85 0.55 -12.55 1.10 -14.10z m22.90 8.85 c0 -11 -0.20 -17 -0.50 -17 -0.30 0 -0.50 6 -0.50 17 0 11 0.20 17 0.50 17 0.30 0 0.50 -6 0.50 -17z m-604 13.90 c0 -0.25 -0.55 -0.40 -1.20 -0.40 -1.15 0 -1.20 0.10 -0.65 1.50 l0.55 1.50 0.65 -1.15 c0.35 -0.60 0.60 -1.25 0.65 -1.45z m317.70 -9.75 c0 -6.85 -0.25 -12.90 -0.50 -13.50 -0.30 -0.70 -0.40 2.45 -0.30 8.30 0.15 7.20 0 9.85 -0.55 11.45 -0.70 2 -0.70 2.10 0.20 2.10 0.75 0 0.95 0.35 0.95 2 0 1.10 0.05 2 0.15 2 0.10 0 0.10 -5.55 0.05 -12.35z m-156.15 -11.20 l-0.45 -2.70 -0.05 3.25 c-0.05 1.80 -0.15 6.30 -0.20 10 -0.05 3.70 -0.30 7.15 -0.55 7.65 -0.30 0.60 -0.20 0.85 0.40 0.85 0.55 0 0.85 0.50 0.90 1.65 0.10 0.85 0.20 -2.80 0.25 -8.20 0.10 -5.35 -0.05 -11 -0.30 -12.50z m-22 16.20 c-0.10 -2.65 -0.30 -3.60 -0.55 -2.90 -0.60 1.40 -0.60 3.95 0 5.45 0.25 0.70 0.55 1.30 0.60 1.30 0.10 0 0.05 -1.75 -0.05 -3.85z m-19.75 0.75 c0 -1.45 0 -8 0.10 -14.50 l0.10 -11.90 5.15 -0.10 5.10 -0.10 -5.25 -0.25 -5.25 -0.30 0 -3.10 c-0.05 -1.70 -0.20 -3.25 -0.40 -3.45 -0.40 -0.40 -0.40 0.80 -0.35 20.30 0.05 11.95 0.20 16 0.75 16 0.05 0 0.10 -1.20 0.05 -2.60z m175.20 -0.65 c-0.35 -3 -0.35 -3 -0.45 -0.65 -0.05 2.05 0.35 4.20 0.70 3.80 0.10 -0.10 0 -1.50 -0.25 -3.15z m356.95 -0.60 c0 -2.35 -0.15 -3.10 -0.45 -2.40 -0.70 1.70 -0.50 5.75 0.30 5.75 0.10 0 0.20 -1.50 0.15 -3.35z m21.95 -7.50 c-0.05 -6 -0.15 -9.40 -0.25 -7.50 l-0.20 3.35 -1.60 0.10 -1.60 0.05 1.65 0.20 1.60 0.20 0 5.95 c0 3.25 -0.20 6.50 -0.50 7.20 -0.35 1.05 -0.30 1.30 0.25 1.30 0.65 0 0.75 -1.60 0.65 -10.85z m-321.95 -6.25 l0.05 -11.40 5.15 -0.10 5.10 -0.10 -5.25 -0.25 -5.25 -0.30 -0.05 -2.75 c-0.05 -4.35 -0.35 -4.55 -0.65 -0.50 -0.45 5.45 0 32.90 0.50 29.50 0.20 -1.50 0.35 -7.85 0.40 -14.10z m-94.30 7.25 c-0.20 -6.90 -0.20 -7.15 -0.65 -5.40 -0.60 2.25 -0.55 4.90 0.05 7.75 0.30 1.35 0.55 2.50 0.60 2.50 0.05 0 0.05 -2.20 0 -4.85z m281.95 0.60 l-0.25 -4.25 12.70 -0.10 12.70 -0.10 -12.50 -0.30 -12.45 -0.25 -0.35 -1.25 c-0.65 -2.65 -1.10 4.45 -0.45 7.55 0.35 1.60 0.70 2.95 0.75 2.95 0.10 0 0 -1.90 -0.15 -4.25z m-503.80 -2.65 c0 -3.25 -0.15 -5.30 -0.35 -4.60 -0.60 2.15 -0.45 10.50 0.25 10.50 0 0 0.05 -2.65 0.10 -5.90z m581.25 0.90 c-0.30 -4.35 -0.35 -4.55 -0.70 -2.45 -0.30 1.90 0.40 7.90 0.90 7.35 0.05 -0.10 0 -2.30 -0.20 -4.90z m-158.20 -3.60 l-0.60 -1.65 -0.15 1.40 -0.15 1.35 -10.50 0 -10.45 0 -0.05 -1.10 c0 -1.10 -0.05 -1.10 -0.45 -0.15 -0.25 0.55 -0.45 1.15 -0.45 1.40 -0.05 0.20 5.25 0.35 11.65 0.35 l11.75 0 -0.60 -1.60z m-395.90 -1 c-0.05 -1.20 -0.25 -2.70 -0.45 -3.40 -0.25 -0.85 -0.35 -0.35 -0.30 1.75 l0.05 3 -11.50 0.25 -11.50 0.30 11.90 0.10 11.85 0.10 -0.05 -2.10z m214.70 1.75 c-3.10 -0.10 -8.20 -0.10 -11.25 0 -3.10 0.05 -0.60 0.15 5.60 0.15 6.20 0 8.70 -0.10 5.65 -0.15z m7.35 -1.25 c0 -0.65 -0.35 -2.25 -0.75 -3.65 -0.50 -1.60 -0.65 -1.90 -0.50 -0.80 0.15 0.90 0.25 2.55 0.25 3.60 0 1.10 0.25 1.95 0.50 1.95 0.30 0 0.50 -0.50 0.50 -1.10z m281.95 -0.25 c-0.05 -0.80 -0.25 -2.05 -0.45 -2.90 -0.30 -1.25 -0.40 -1 -0.45 1.40 0 1.60 0.15 2.85 0.45 2.85 0.30 0 0.45 -0.60 0.45 -1.35z m-545.60 -5 c-0.10 -1.05 -0.20 -0.30 -0.20 1.60 0 1.95 0.10 2.75 0.20 1.90 0.10 -0.90 0.10 -2.50 0 -3.50z m-43.50 -4.25 c-0.10 -0.90 -0.20 -0.30 -0.20 1.35 0 1.65 0.10 2.40 0.20 1.65 0.10 -0.75 0.10 -2.10 0 -3z m43 -3 c-0.10 -0.90 -0.20 -0.20 -0.20 1.60 0 1.80 0.10 2.50 0.20 1.65 0.10 -0.90 0.10 -2.40 0 -3.25z m-42.50 -4.50 c-0.10 -0.65 -0.20 -0.15 -0.20 1.10 0 1.25 0.10 1.75 0.20 1.15 0.10 -0.65 0.10 -1.65 0 -2.25z m656.55 2.25 c-0.50 -0.10 -1.30 -0.10 -1.75 0 -0.50 0.15 -0.10 0.25 0.85 0.25 0.95 0 1.35 -0.10 0.90 -0.25z m-614.55 -5 c-0.10 -0.80 -0.20 -0.15 -0.20 1.35 0 1.50 0.10 2.15 0.20 1.40 0.10 -0.80 0.10 -2 0 -2.75z m584.05 -5.85 c0.10 -0.50 -0.05 -1.15 -0.40 -1.50 -0.85 -0.85 -2.20 1.10 -1.40 2.05 0.70 0.85 1.60 0.60 1.80 -0.55z m-584.50 -1.65 c-0.20 -2 -1.65 -2.10 -2.30 -0.20 -0.55 1.50 -0.50 1.55 0.95 1.55 1.35 0 1.50 -0.15 1.35 -1.35z m-38.85 -0.25 c-0.60 -1.70 -2.05 -1.80 -2.05 -0.20 0 1.05 0.25 1.30 1.25 1.30 1.05 0 1.15 -0.15 0.80 -1.10z m467.60 0.25 c-0.60 -1.65 -0.80 -1.80 -1.50 -0.90 -0.95 1.35 -0.80 1.75 0.60 1.75 0.95 0 1.15 -0.20 0.90 -0.85z m83.20 -20.10 c15.85 -5.25 35.30 -14.55 54.40 -25.95 5.80 -3.45 20.05 -12.80 21.15 -13.80 0.50 -0.50 -0.45 -1.55 -4.80 -5.25 -3 -2.55 -6.25 -5.20 -7.20 -5.85 l-1.80 -1.30 -2.65 1.40 c-13.70 6.90 -37.90 22.20 -51.40 32.40 -13.35 10.20 -17.65 14.15 -20 18.60 -1 1.80 -1 1.95 -0.20 2.30 1.55 0.65 4.65 0 12.50 -2.55z m-542.10 -55.20 l0 -57.35 1.80 0 c1.60 0 1.95 0.25 3.30 2.40 0.85 1.30 4.40 6.85 7.90 12.35 3.55 5.50 9.95 15.50 14.25 22.25 20.70 32.35 24.50 38.35 29.40 46 2.90 4.55 5.50 8.50 5.80 8.85 0.40 0.45 1.35 -0.70 3.70 -4.50 3.50 -5.60 8.10 -12.90 23.85 -37.75 14.65 -23.15 19.95 -31.50 26.35 -41.70 5.40 -8.65 5.60 -8.90 7.25 -8.90 l1.65 0 0 58 0 58 8.25 0 8.25 0 0 -74.75 0 -74.75 -7.70 0 -7.65 0 -8.40 13.10 c-4.60 7.25 -18.40 28.95 -30.70 48.25 l-22.30 35.15 -1.75 0 -1.75 0 -13 -20.35 c-13.70 -21.40 -15.90 -24.85 -21.10 -32.90 -6.35 -9.85 -24.75 -38.55 -26.20 -40.85 l-1.45 -2.40 -7.75 0 -7.75 0 0 74.75 0 74.80 7.90 -0.15 7.85 -0.15 0 -57.40z m204.15 40.05 l-0.15 -17.65 -6 -0.55 c-3.30 -0.35 -6.85 -0.60 -7.85 -0.65 l-1.90 -0.05 0 18.25 0 18.25 8 0 8 0 -0.10 -17.60z m125.10 0.10 l0 -17.50 -7.35 0.30 c-4.10 0.15 -7.70 0.35 -8 0.45 -0.50 0.15 -0.65 4.05 -0.65 17.25 l0 17 8 0 8 0 0 -17.50z m49.95 -2.55 c6.10 -12.05 9.80 -19.95 9.35 -19.80 -0.45 0.20 -3.90 0.60 -7.70 0.90 -3.75 0.30 -7.15 0.70 -7.55 0.90 -0.50 0.30 -19.55 37.15 -19.55 37.90 0 0.05 3.45 0.15 7.65 0.15 l7.65 0 10.15 -20.05z m135.05 19.80 c0 -0.15 -2.40 -5.15 -5.30 -11.15 -2.95 -5.95 -6.40 -13.10 -7.70 -15.85 -3.75 -7.95 -12.55 -25.95 -12.70 -26.15 -0.10 -0.05 -3.10 0.35 -6.70 0.95 l-6.55 1.10 0.65 1.55 c0.55 1.15 20.65 42.15 23.90 48.70 0.55 1.05 0.80 1.10 7.50 1.10 3.80 0 6.90 -0.10 6.90 -0.25z m-225 -38.25 c40.60 -1.10 78.40 -3.65 110.75 -7.45 4.70 -0.55 11.55 -1.35 15.25 -1.80 16.95 -1.90 52.40 -7.20 67 -10 37.75 -7.15 61.35 -12.75 85.25 -20.20 23.25 -7.20 42.35 -15.40 52.50 -22.45 7 -4.90 12.30 -12.05 11.50 -15.55 -1.05 -4.80 -7.30 -10.25 -15.80 -13.80 -3.35 -1.40 -13.75 -4.95 -16 -5.45 -1.30 -0.30 -1.35 -0.25 -1.55 2.85 -0.35 5.40 -3.50 10 -10.65 15.40 -25.75 19.70 -98.50 41.35 -189 56.40 -20.25 3.35 -47.85 7.35 -61.25 8.80 -4 0.40 -12.10 1.35 -18 2 -5.90 0.65 -13.35 1.45 -16.50 1.75 -39.30 3.55 -61.55 4.70 -94.25 4.75 -12.35 0.05 -24.05 0.15 -26 0.20 l-3.50 0.15 3 0.45 c10.95 1.60 35.90 3.35 55.75 3.90 19.70 0.60 31.15 0.60 51.50 0.05z m-85 -60.25 l0 -50.75 -8 0 -8 0 0 50.75 0 50.75 8 0 8 0 0 -50.75z m429.90 44.25 c2.10 -0.35 3.25 -0.95 5.80 -3.10 1.70 -1.45 4.65 -3.90 6.50 -5.40 1.85 -1.50 4.10 -3.65 5 -4.75 1.95 -2.35 3.95 -6.10 3.40 -6.40 -1.40 -0.80 -3.65 -0.75 -7.30 0.10 -4.90 1.15 -8.65 2.65 -20.20 7.95 l-8.65 4 2.65 2.25 c6.60 5.70 7.60 6.35 8.90 6.05 0.70 -0.15 2.45 -0.50 3.90 -0.70z m-306.50 -1.25 l1.60 -0.30 0 -46.70 0 -46.75 -8 0 -8 0 0 47.65 0 47.65 6.40 -0.65 c3.50 -0.35 7.10 -0.75 8 -0.90z m66.85 -9.30 c3.85 -0.60 7.35 -1.40 7.75 -1.75 0.40 -0.35 7.60 -14.50 16 -31.40 l15.25 -30.75 1.80 0 1.75 -0.05 4.30 8.85 c2.35 4.90 7.95 16.25 12.40 25.30 6.90 13.90 8.30 16.35 9.20 16.35 0.55 -0.05 3.55 -0.65 6.60 -1.40 l5.55 -1.35 -3.05 -6.25 c-1.65 -3.45 -4.60 -9.55 -6.50 -13.50 -1.90 -4 -6.35 -13.10 -9.80 -20.25 -3.45 -7.15 -7.95 -16.45 -10 -20.60 l-3.70 -7.65 -6.55 0 -6.55 0 -6.35 12.65 c-3.45 6.90 -13.20 26.20 -21.60 42.80 -8.40 16.60 -15.25 30.25 -15.25 30.30 0 0.10 0.40 0.05 0.90 -0.05 0.45 -0.10 4 -0.65 7.85 -1.25z"/>
 </g>
 <g fill="#005697">
  <path d="M455.15 274.45 c-8.20 -1.60 -12.10 -12.25 -7.40 -20.30 4.05 -6.85 14.75 -7.50 19.80 -1.15 4.10 5.10 3.35 14.35 -1.45 18.55 -3 2.65 -6.90 3.70 -10.95 2.90z m6.60 -4.40 c2.15 -1.20 3.75 -4.70 3.80 -8.40 0.10 -5.20 -2.60 -9.05 -6.70 -9.50 -6.65 -0.75 -10.85 7.80 -7.30 14.95 2.05 4 6.10 5.20 10.20 2.95z"/>
  <path d="M513.60 274.25 c-8.10 -1.80 -12.65 -7.50 -12.90 -16.25 -0.35 -10.40 5.20 -17.30 15.15 -18.95 2.85 -0.50 4.10 -0.45 7.10 0.15 2.05 0.45 3.80 0.90 3.90 1 0.15 0.15 0 1 -0.30 1.95 l-0.60 1.70 -2.60 -0.70 c-5.70 -1.55 -12.15 0.30 -15.20 4.30 -2.05 2.65 -2.80 5.35 -2.80 9.80 0 5.60 2.45 10.10 6.75 12.30 2.55 1.30 8 1.70 11.30 0.80 2.80 -0.75 2.80 -0.75 3.30 1.25 0.40 1.70 -0.30 2.10 -5.05 2.85 -4.25 0.65 -4.05 0.65 -8.05 -0.20z"/>
  <path d="M535.15 274.45 c-2.45 -0.70 -4.55 -3.10 -4.90 -5.65 -0.85 -5.65 2.90 -9.15 10.95 -10.25 2.10 -0.30 3.95 -0.55 4.05 -0.55 0.50 0 -0.85 -3.80 -1.65 -4.65 -1.45 -1.40 -5.50 -1.70 -8.40 -0.60 -1.95 0.75 -2.40 0.75 -2.75 0.20 -1.60 -2.50 1.20 -4.10 7.30 -4.15 5.10 -0.05 6.95 0.90 8.75 4.45 1.20 2.35 1.25 3 1.35 11.85 l0.10 9.35 -1.75 -0.05 c-1.90 -0.05 -2.90 -1.20 -2.35 -2.75 0.25 -0.80 0.15 -0.75 -0.90 0.15 -2.70 2.40 -6.85 3.55 -9.80 2.65z m7.65 -4.30 c1.55 -1 2.30 -2.75 2.40 -5.70 0.05 -2.65 0 -2.70 -1.45 -2.85 -0.80 -0.10 -2.65 0.05 -4.10 0.40 -4.45 1 -6.45 4.70 -4.15 7.65 1.50 1.90 4.80 2.10 7.30 0.50z"/>
  <path d="M604.50 274.65 c-3.95 -0.60 -7.05 -2.85 -8.85 -6.55 -2.70 -5.55 -1.25 -13.60 3.10 -16.90 2.05 -1.55 5.65 -2.70 8.45 -2.70 2.40 0 6.55 1.85 8.15 3.55 2.95 3.25 4.10 9.15 2.65 14.20 -1.50 5.30 -7.80 9.25 -13.50 8.40z m5 -4.25 c4.45 -2.25 6.10 -9.05 3.45 -14.20 -1.60 -3.05 -3.80 -4.35 -7.15 -4.05 -2.10 0.20 -2.75 0.50 -4.35 2.20 -4.40 4.75 -3.20 13.75 2.25 16.20 2.65 1.20 3.15 1.20 5.80 -0.15z"/>
  <path d="M686 274.40 c-2.30 -0.65 -3.45 -1.70 -4.60 -4.35 -2.60 -5.75 2.80 -11.05 11.85 -11.65 2.45 -0.20 2.50 -0.25 2.40 -1.65 -0.15 -2.05 -1.05 -3.55 -2.50 -4.20 -1.65 -0.75 -4.95 -0.65 -7.40 0.20 -2.10 0.75 -2.45 0.65 -2.95 -1.10 -0.30 -0.95 0 -1.20 2.45 -2.10 7.30 -2.75 14.05 0.25 14.95 6.55 0.15 1.20 0.30 5.75 0.40 10.15 l0.10 8 -2 0 c-1.75 0 -1.95 -0.15 -2.10 -1.35 -0.20 -1.65 -0.65 -1.75 -1.85 -0.40 -0.50 0.55 -2.05 1.35 -3.40 1.75 -2.85 0.85 -2.95 0.85 -5.35 0.15z m7.15 -4 c1.70 -0.90 2.85 -3.50 2.85 -6.35 l0 -2.70 -2.90 0.25 c-4.20 0.40 -6.50 1.50 -7.35 3.65 -0.65 1.55 -0.70 1.95 -0.05 3.50 0.45 0.95 1.25 2 1.90 2.25 1.25 0.50 4.05 0.20 5.55 -0.60z"/>
  <path d="M476.80 274.15 c-0.15 -0.20 -0.30 -5.10 -0.30 -11 l0 -10.65 -1.75 0 c-1.65 0 -1.75 -0.10 -1.75 -1.75 0 -1.65 0.10 -1.75 1.75 -1.75 1.70 0 1.75 -0.05 1.75 -1.85 0 -6.60 4.85 -11.25 10.65 -10.30 2.25 0.35 2.40 0.55 1.90 2.45 -0.35 1.30 -0.50 1.40 -2.50 1.25 -1.30 -0.05 -2.55 0.15 -3.30 0.65 -1.30 0.85 -2.25 3.50 -2.25 6.20 l0 1.60 3 0 3 0 0 1.75 0 1.75 -3 0 -3 0 -0.10 10.85 -0.15 10.85 -1.80 0.10 c-1.05 0.10 -2 0 -2.15 -0.15z"/>
  <path d="M557.20 273.75 c-0.10 -0.25 -0.15 -8.60 -0.10 -18.50 l0.15 -18 2.25 0 2.25 0 0.15 17.50 c0.05 9.65 0 18 -0.15 18.55 -0.20 0.90 -0.60 1.10 -2.30 1.05 -1.15 -0.05 -2.15 -0.30 -2.25 -0.60z"/>
  <path d="M569.80 274.15 c-0.15 -0.20 -0.30 -5.90 -0.30 -12.75 l0 -12.40 2.25 0 2.25 0 -0.10 12.65 -0.15 12.60 -1.80 0.10 c-1 0.05 -1.95 -0.05 -2.15 -0.20z"/>
  <path d="M582.25 274.10 c-0.15 -0.15 -0.25 -5.05 -0.25 -10.95 l0 -10.65 -1.75 0 c-1.65 0 -1.75 -0.10 -1.75 -1.75 0 -1.65 0.10 -1.75 1.70 -1.75 l1.70 0 0.35 -3.25 c0.65 -6.15 5.20 -9.95 10.55 -8.75 2.25 0.50 2.25 0.50 1.80 2.20 -0.35 1.30 -0.60 1.40 -2.90 1.50 -1.40 0.05 -2.95 0.35 -3.35 0.75 -0.95 0.75 -1.85 3.60 -1.85 5.95 l0 1.60 3 0 3 0 0 1.75 0 1.75 -3 0 -3 0 0 11 0 11 -2 -0.10 c-1.10 -0.05 -2.10 -0.20 -2.25 -0.30z"/>
  <path d="M625 274.05 c0 -0.15 -0.05 -5.85 -0.15 -12.70 l-0.10 -12.35 1.90 0 c1.85 0 1.85 0 1.85 2 0 1.10 0.15 2 0.30 2 0.15 0 0.85 -0.70 1.60 -1.55 1.40 -1.70 3.85 -2.95 5.75 -2.95 1.05 0 1.15 0.20 1.10 2.15 -0.05 2.10 -0.05 2.10 -2 2.25 -2.80 0.25 -5.05 2.45 -5.75 5.80 -0.30 1.40 -0.50 5.25 -0.50 8.55 0.05 3.30 0.05 6.25 0.05 6.55 -0.05 0.55 -4.05 0.80 -4.05 0.25z"/>
  <path d="M642.25 274 c-0.15 -0.25 -0.30 -5.95 -0.40 -12.70 l-0.10 -12.30 1.90 0 c1.50 0 1.85 0.20 1.85 0.95 0 2.40 0.55 2.65 2.30 1.10 3.90 -3.45 9.50 -3.30 12.75 0.25 2.20 2.40 2.55 4.55 2.55 14.15 l0 8.80 -2.05 0.10 c-1.15 0.05 -2.05 -0.10 -2.05 -0.25 -0.20 -16.60 -0.25 -17.35 -1.40 -19.20 -2.85 -4.55 -9.65 -2.85 -11.15 2.75 -0.30 1.15 -0.45 5.15 -0.40 9.30 l0.15 7.30 -1.85 0.10 c-1 0 -1.95 -0.15 -2.10 -0.35z"/>
  <path d="M671.25 274.15 c-0.30 -0.10 -0.50 -4.65 -0.45 -12.55 l0.05 -12.35 2.10 0 2.10 0 0 12.50 0.05 12.50 -1.70 0.05 c-0.90 0 -1.85 -0.05 -2.15 -0.15z"/>
  <path d="M570 244 c-1.60 -1.60 -1.25 -3.30 0.90 -4.45 1.80 -0.95 3.60 0.45 3.60 2.70 0 1.45 -0.25 1.85 -1.30 2.25 -1.75 0.70 -2.05 0.65 -3.20 -0.50z"/>
  <path d="M671.70 244.60 c-2.80 -1.85 -0.55 -6.60 2.45 -5.05 0.60 0.35 1.25 0.85 1.45 1.15 1.45 2.15 -1.75 5.35 -3.90 3.90z"/>
  <path d="M74.30 221.75 c-7.40 -2.05 -12.20 -8.55 -12.50 -17 -0.40 -9.25 3.35 -16.55 10.05 -19.60 3.40 -1.55 9.75 -1.80 12.70 -0.50 5.35 2.35 8.90 8.75 8.75 15.85 l-0.05 2.25 -13.70 0.10 -13.75 0.10 -0.05 1.15 c-0.15 2 1.20 6.80 2.45 8.80 1.55 2.45 2.60 3.35 5.55 4.65 3.20 1.45 9.70 1.55 13.70 0.20 2.25 -0.70 2.75 -0.75 3.10 -0.20 0.70 1.15 0.50 2.40 -0.50 2.90 -2.95 1.60 -12.05 2.35 -15.75 1.30z m14.80 -24.25 c-0.40 -4 -3.35 -8.45 -6.45 -9.80 -2 -0.85 -5.60 -0.90 -8.35 -0.10 -2.85 0.85 -5.95 4.10 -7.25 7.60 -1.75 4.70 -2.60 4.35 10.60 4.20 l11.60 -0.15 -0.15 -1.75z"/>
  <path d="M152.75 222.20 c-3.55 -0.85 -5.05 -2.30 -6.20 -5.80 -0.40 -1.20 -0.65 -6.40 -0.70 -15.20 l-0.10 -13.35 -3 -0.05 c-3 -0.05 -3 -0.05 -3.15 -1.65 l-0.15 -1.60 3.15 -0.15 3.15 -0.15 0.05 -2.75 c0 -1.50 0.10 -3 0.10 -3.35 0.10 -0.50 2.60 -1.65 3.60 -1.65 0.20 0 0.40 1.75 0.35 3.90 l0 3.85 5.35 0.15 5.35 0.15 -0.15 1.60 -0.15 1.60 -5.10 0.15 -5.10 0.15 -0.15 12.10 c-0.15 14.05 0.05 15.80 2.25 17.65 1.40 1.20 1.80 1.30 4.45 1 2.80 -0.35 2.90 -0.30 3.20 0.95 0.20 0.75 0.15 1.50 -0.10 1.75 -0.55 0.50 -5.60 1 -6.95 0.70z"/>
  <path d="M173.25 222 c-4.10 -0.90 -6.85 -3.65 -7.80 -7.80 -1.20 -5.20 1.75 -10.55 7.25 -13.15 2.95 -1.35 8.85 -2.55 12.65 -2.55 l2.80 0 -0.30 -2.80 c-0.40 -3.85 -1.75 -6.15 -4.40 -7.60 -1.85 -1 -2.70 -1.15 -5.70 -0.95 -2.10 0.10 -4.50 0.65 -5.95 1.25 -2.30 1.05 -2.45 1.05 -3.10 0.25 -0.35 -0.50 -0.70 -1.15 -0.70 -1.45 0 -0.75 3.90 -2.50 7.25 -3.20 7.10 -1.45 13.20 1.20 15.55 6.75 0.85 2.05 0.90 2.90 1.40 22.90 l0.20 7.90 -1.85 -0.15 c-1.85 -0.15 -1.90 -0.20 -2 -3.30 l-0.05 -1.70 -2.45 2.20 c-3.35 3 -8.45 4.35 -12.80 3.40z m7 -3.55 c1.20 -0.30 3.10 -1.30 4.20 -2.25 2.75 -2.40 3.65 -4.95 3.45 -10.20 l-0.15 -4.25 -3.30 0.10 c-6.35 0.20 -11.65 2.10 -13.55 4.80 -1.55 2.15 -1.80 6.50 -0.50 8.80 1.70 3.15 5.15 4.20 9.85 3z"/>
  <path d="M298.25 222.20 c-5.30 -1.45 -6.30 -1.90 -8.45 -3.75 -3.05 -2.65 -4.60 -5.20 -5.55 -8.80 -2.55 -9.70 1.35 -20.55 8.65 -24.35 4.55 -2.35 11.55 -2.05 15.70 0.70 3.90 2.60 6.70 9.05 6.30 14.50 l-0.15 2.25 -13.60 0 -13.65 0 0 1.80 c0 1 0.45 3.30 1 5.05 1.10 3.60 3.90 6.80 7.25 8.15 2.60 1.10 10.15 1.15 13.25 0.05 2.95 -1 2.95 -1 3.50 0.50 0.65 1.65 -0.20 2.35 -3.80 3.15 -2.45 0.55 -9.35 1.05 -10.45 0.75z m12.50 -25.05 c-0.35 -2.50 -1.75 -5.70 -3.15 -7.35 -2.25 -2.55 -8.25 -3.60 -12 -2 -2.30 0.95 -4.90 3.40 -6.10 5.70 -1.10 2.15 -2 5.35 -1.60 5.70 0.15 0.15 5.40 0.30 11.70 0.30 l11.45 0 -0.30 -2.35z"/>
  <path d="M329.25 222.05 c-6.15 -1.60 -9.05 -6.45 -7.75 -12.75 0.70 -3.40 3.10 -6.30 6.65 -8 3 -1.50 9.20 -2.80 13.15 -2.80 3.05 0 3.10 -0.05 2.15 -4.50 -0.65 -3.10 -2.80 -5.70 -5.30 -6.55 -2.55 -0.80 -8.05 -0.25 -10.70 1.05 -2.05 1.05 -2.15 1.05 -2.80 0.20 -0.35 -0.50 -0.65 -1.20 -0.65 -1.55 0 -1.65 8.60 -3.90 12.75 -3.40 4.95 0.60 7.90 2.70 9.80 6.95 1.10 2.40 1.20 3.25 1.30 14.30 0.05 6.45 0.20 12.85 0.40 14.15 l0.30 2.40 -1.90 -0.15 c-1.85 -0.15 -1.90 -0.20 -2.05 -2.25 -0.10 -1.20 -0.30 -2.15 -0.45 -2.15 -0.15 0 -1.05 0.70 -2.05 1.55 -3.35 2.95 -9.05 4.50 -12.85 3.50z m9.35 -4.65 c1.15 -0.60 2.80 -2.15 3.65 -3.30 1.45 -2.10 1.50 -2.40 1.50 -7.25 l0 -5.10 -3.45 0.10 c-4.40 0.15 -9 1.35 -11.40 2.90 -4.85 3.20 -4.80 10.65 0.10 13.35 2.30 1.25 6.60 0.95 9.60 -0.70z"/>
  <path d="M382.50 221.40 c-1.65 -0.85 -2.55 -1.75 -3.40 -3.50 -1.10 -2.25 -1.15 -2.80 -1.25 -16.15 l-0.10 -13.90 -3.25 -0.05 -3.25 -0.05 0 -1.50 c0 -1.50 0.05 -1.50 3.25 -1.75 l3.25 -0.25 0.05 -2.75 c0.05 -1.50 0.10 -3 0.15 -3.35 0.05 -0.50 2.55 -1.65 3.55 -1.65 0.20 0 0.35 1.75 0.35 3.90 l0.05 3.85 5.15 0.25 c5.60 0.25 5.45 0.20 5 3.15 0 0.20 -2.30 0.35 -5.05 0.35 l-5 0 -0.10 11.90 c-0.10 14.60 -0.15 14.35 0.60 16.15 0.90 2.20 3.10 3.15 6.30 2.75 2.50 -0.30 2.60 -0.25 2.90 1 0.20 0.75 0.15 1.55 -0.05 1.75 -0.20 0.20 -1.85 0.55 -3.65 0.70 -2.80 0.30 -3.55 0.15 -5.50 -0.85z"/>
  <path d="M577.70 221.60 c-8.20 -2.45 -12.70 -9.80 -12.05 -19.80 0.60 -9.80 5.80 -16.45 13.85 -17.80 2.60 -0.45 4.15 -0.45 6.10 0 6.50 1.35 9.95 5.55 11.35 13.65 0.65 3.65 0.20 5.40 -1.35 5.25 -0.45 -0.05 -6.55 0 -13.55 0 l-12.70 0.10 0.30 2.50 c0.50 4.05 1.40 6.45 3.45 8.70 4.15 4.75 11.05 5.80 19.75 3.05 0.90 -0.30 1.25 -0.10 1.70 0.95 0.80 1.70 0.35 2.15 -3.10 3.05 -4.50 1.20 -10.25 1.35 -13.75 0.35z m15.30 -23.25 c0 -2.15 -1.50 -6.30 -2.85 -7.90 -3.70 -4.35 -11.50 -4.65 -15.80 -0.55 -2.45 2.30 -5.35 8.40 -4.45 9.30 0.15 0.15 5.40 0.30 11.70 0.30 l11.40 0 0 -1.15z"/>
  <path d="M656.40 221.75 c-11.45 -2.80 -16.75 -16.60 -10.90 -28.25 1.45 -2.85 4.75 -6.35 7.35 -7.65 4.45 -2.30 11.90 -2.90 16.65 -1.30 2.65 0.90 3.25 1.60 2.50 3 -0.35 0.65 -0.70 1.25 -0.75 1.35 -0.10 0.10 -1.55 -0.35 -3.30 -0.95 -5.75 -1.90 -13.10 -0.40 -16.45 3.40 -7.25 8.20 -5.10 22.20 3.95 26.10 3.20 1.35 7.95 1.65 11.25 0.70 4.70 -1.35 4.55 -1.35 5.20 0.10 0.35 0.70 0.60 1.35 0.60 1.45 0 0.20 -3.95 1.65 -5.55 2 -3.05 0.65 -7.90 0.70 -10.55 0.05z"/>
  <path d="M684.10 221.45 c-6.35 -2.50 -8.35 -10.50 -4.15 -16.30 2.65 -3.65 10.80 -6.65 18.20 -6.65 l2.50 0 -0.30 -2.80 c-0.40 -3.95 -1.70 -6.20 -4.40 -7.60 -1.90 -1 -2.70 -1.15 -5.80 -0.95 -2.05 0.15 -4.60 0.70 -5.95 1.30 -2.50 1.10 -2.85 1.05 -3.45 -0.85 -0.25 -0.95 -0.05 -1.25 1.85 -2.05 7.15 -3.05 14.25 -2.55 18 1.30 3.35 3.40 3.50 4.35 3.45 18 -0.05 8.05 0.10 12.15 0.45 12.15 0.25 0 0.50 1.05 0.50 2.30 l0 2.25 -1.85 -0.15 c-1.90 -0.15 -1.90 -0.15 -2.05 -2.55 l-0.15 -2.40 -2.45 2.20 c-3.90 3.55 -9.70 4.65 -14.40 2.80z m8.65 -3 c2.60 -0.65 5.80 -3.25 6.95 -5.65 0.55 -1.20 0.80 -3.10 0.80 -6.20 l0 -4.50 -1.80 -0.20 c-3.15 -0.35 -8.30 0.55 -11.45 2.10 -4 1.90 -5.45 4.30 -5.15 8.30 0.45 5.25 4.60 7.65 10.65 6.15z"/>
  <path d="M2.25 221 c-0.20 -0.30 -0.20 -1.15 -0.05 -1.90 0.15 -0.75 0.40 -3.25 0.55 -5.60 0.45 -6.85 0.75 -10.70 1.50 -19.85 0.10 -1.60 0.35 -4.70 0.50 -6.90 0.45 -7.10 0.90 -13.40 1.15 -16.40 0.10 -0.75 0.50 -0.90 2.40 -0.75 l2.30 0.15 6.45 17 c3.55 9.35 7.30 19.55 8.30 22.65 1.05 3.05 2 5.60 2.20 5.60 0.15 0 0.55 -0.90 0.90 -2 0.75 -2.60 5.15 -14.10 11.55 -30.35 l5.15 -13.15 2.15 0 c1.20 0 2.25 0.20 2.40 0.40 0.15 0.25 0.40 2.85 0.55 5.90 0.15 3 0.40 6.45 0.50 7.70 0.10 1.25 0.35 4.40 0.50 7 0.15 2.60 0.40 5.75 0.50 7 0.10 1.25 0.35 4.40 0.50 7 0.35 5.55 0.65 10.10 1 14.15 l0.25 2.85 -2 0 c-1.85 0 -1.95 -0.10 -2.20 -1.60 -0.10 -0.90 -0.20 -2.10 -0.20 -2.65 0.05 -1.05 -0.50 -9.60 -1.35 -22.25 -0.60 -8.05 -0.70 -10.25 -0.75 -14.90 -0.05 -2.55 -0.20 -4.55 -0.40 -4.40 -0.15 0.15 -2 4.85 -4.05 10.40 -2.10 5.60 -6.05 15.85 -8.80 22.80 l-5 12.65 -1.45 -0.15 c-1.45 -0.15 -1.60 -0.45 -7.15 -15.15 -3.10 -8.25 -6.90 -18.60 -8.45 -23 -1.50 -4.35 -2.80 -8 -2.85 -8.05 -0.05 -0.05 -0.10 1.15 -0.10 2.70 0 3.50 -0.90 19.30 -1.50 26.35 -0.10 1.40 -0.35 5.20 -0.55 8.50 -0.30 5.45 -0.45 7.30 -0.65 8.40 -0.10 0.55 -3.45 0.40 -3.80 -0.15z"/>
  <path d="M103 221.15 c0.10 -3.15 -0.45 -35.10 -0.55 -35.65 -0.15 -0.55 0.30 -0.80 1.70 -0.90 1.80 -0.15 1.85 -0.10 1.95 1.50 0.05 0.90 0.05 2.15 0 2.80 0 0.60 0.05 1.10 0.20 1.10 0.10 0 1.05 -0.85 2.10 -1.90 3.05 -3.05 6.10 -4.25 10.55 -4.30 3.25 0 4.20 0.20 6.45 1.45 3 1.65 5.20 4.40 6.10 7.70 0.35 1.35 0.55 6.95 0.55 15.20 l0.05 13.10 -1.80 0.15 -1.80 0.15 -0.05 -11.65 c-0.05 -13.20 -0.10 -13.90 -1.20 -16.70 -3.15 -8.25 -14.85 -8 -19.40 0.50 -1.05 1.95 -1.10 2.75 -1.25 14.95 l-0.15 12.85 -1.75 0 c-0.95 0 -1.70 -0.15 -1.70 -0.35z"/>
  <path d="M204.10 194.15 l0.15 -27.40 1.75 0 1.75 0 0 27.25 0 27.25 -1.90 0.15 -1.85 0.15 0.10 -27.40z"/>
  <path d="M237.50 195.50 l0 -26 2 0 2 0 0 11.25 0 11.20 14.05 0.15 c7.70 0.10 14.15 0 14.30 -0.20 0.10 -0.25 0.25 -5.30 0.30 -11.25 l0.10 -10.90 1.90 -0.15 1.85 -0.15 0 26.05 0 26.05 -1.85 -0.15 -1.90 -0.15 -0.10 -12.50 -0.10 -12.50 -14.25 -0.15 -14.30 -0.10 0 12.75 0 12.75 -2 0 -2 0 0 -26z"/>
  <path d="M360 221.40 c0 -0.40 -0.05 -53.70 0 -54.15 0 -0.25 0.85 -0.50 1.90 -0.50 l1.85 0 0 27.25 0 27.25 -1.85 0.15 c-1.05 0.10 -1.90 0.10 -1.90 0z"/>
  <path d="M400.35 221.20 c-0.45 -0.50 -0.45 -53.30 0.05 -53.95 0.20 -0.30 1.10 -0.55 2.05 -0.50 l1.70 0 -0.05 11.65 c-0.05 6.35 0.05 11.60 0.15 11.60 0.15 0 1.15 -0.90 2.30 -2.05 3 -3 5.95 -4.20 10.20 -4.15 5.75 0.10 9.65 2.50 11.80 7.30 1.15 2.55 1.20 3.15 1.35 16.55 l0.15 13.90 -1.90 -0.15 -1.90 -0.15 -0.10 -12.30 c-0.10 -12.85 -0.40 -15.15 -2.30 -17.95 -1.75 -2.65 -4.05 -3.75 -7.85 -3.75 -4.05 0 -7.20 1.65 -9.50 5 -2.15 3.15 -2.55 6.10 -2.45 18.25 l0.10 10.75 -1.70 0.15 c-0.95 0.10 -1.90 0 -2.10 -0.20z"/>
  <path d="M455.50 221 c0 -0.45 16.85 -46.50 18.25 -49.85 0.65 -1.55 0.90 -1.70 2.55 -1.55 l1.85 0.15 9.20 25 c5 13.75 9.25 25.40 9.45 25.90 0.25 0.80 0 0.90 -1.85 0.75 l-2.10 -0.15 -3.25 -8.85 -3.25 -8.90 -10.35 0 -10.30 0 -3.20 9 -3.20 9 -1.90 0 c-1.05 0 -1.90 -0.20 -1.90 -0.50z m29.25 -21.85 c-1.95 -4.95 -6.90 -18.65 -7.55 -21.05 -0.50 -1.75 -1.05 -2.95 -1.25 -2.75 -0.20 0.20 -0.70 1.65 -1.10 3.15 -0.45 1.50 -2.35 6.95 -4.25 12.15 l-3.50 9.35 9 0 c8.40 0 9 -0.05 8.65 -0.85z"/>
  <path d="M505 221.40 c0 -0.10 -0.05 -8.45 -0.15 -18.55 l-0.10 -18.40 1.75 0.15 c1.60 0.15 1.75 0.25 1.60 1.65 -0.10 0.85 0.05 2.05 0.30 2.70 0.40 1.15 0.40 1.15 1.80 -0.65 2.10 -2.80 5.80 -4.45 10.10 -4.50 3.10 -0.05 3.80 0.15 6 1.45 2.15 1.35 4.05 3.50 4.90 5.40 0.15 0.40 0.45 0.25 0.85 -0.40 1.50 -2.50 5 -5.25 7.75 -6.05 5.65 -1.65 11.05 0.10 14.05 4.55 2.25 3.30 2.65 6.45 2.65 20.15 l0 12.65 -1.75 -0.15 -1.75 -0.15 -0.15 -12.25 c-0.15 -14.30 -0.50 -16.10 -3.55 -19.30 -1.60 -1.65 -2.55 -2.20 -4.35 -2.45 -3.10 -0.45 -6.10 0.45 -8.45 2.55 -3.50 3.15 -3.60 3.70 -3.65 18.40 l-0.10 13.05 -1.90 0 -1.90 0 -0.10 -13 -0.10 -13 -1.50 -3 c-1.20 -2.45 -1.90 -3.20 -3.75 -4.10 -3.60 -1.85 -7.25 -1.25 -10.50 1.65 -3.85 3.45 -4.05 4.50 -4.15 18.80 l-0.10 12.65 -1.85 0.15 c-1.05 0.10 -1.90 0.10 -1.90 0z"/>
  <path d="M606.40 206.55 c-0.05 -8.30 -0.15 -16.55 -0.15 -18.40 l0 -3.40 1.75 0 c1.50 0 1.75 0.15 1.80 1.25 0.05 0.70 0.10 2 0.15 2.90 0.05 1.45 1.05 2.40 1.05 1 0 -1.10 2.60 -3.90 4.55 -4.90 2.10 -1.10 5.45 -1.60 6.45 -1 0.30 0.20 0.50 1 0.40 1.80 -0.15 1.35 -0.35 1.45 -2.80 1.75 -5 0.65 -8.10 4.60 -9.10 11.55 -0.30 2 -0.50 7.80 -0.45 12.90 l0.10 9.25 -1.80 0.15 -1.85 0.15 -0.10 -15z"/>
  <path d="M630 203 l0 -18.50 2 0 2 0 0 18.50 0 18.50 -2 0 -2 0 0 -18.50z"/>
  <path d="M630.35 176.95 c-3.35 -2 -0.80 -7.35 2.90 -5.95 1.75 0.65 2.40 3.50 1.15 5.15 -0.85 1.05 -2.90 1.50 -4.05 0.80z"/>
  <path d="M547.25 156.80 c-1.75 -0.55 -2 -0.80 -1.90 -2 0.25 -3.45 3.30 -7.55 9.65 -12.90 16.60 -14 39.85 -29.35 63.85 -42.15 l3.55 -1.90 4.20 3.25 c5.50 4.30 12.90 10.85 12.90 11.40 0 0.85 -16.25 11.55 -27.75 18.25 -12.85 7.55 -33.95 17.70 -45 21.65 -4.75 1.70 -13.85 4.45 -15.75 4.75 -0.95 0.15 -2.65 0 -3.75 -0.35z"/>
  <path d="M1 80.25 l0 -76.25 9.25 0 9.25 0 1.45 2.40 c1.45 2.30 19.85 31 26.20 40.85 5.20 8.05 7.40 11.50 21.10 32.90 7.15 11.20 13.10 20.35 13.25 20.35 0.15 0 10.30 -15.80 22.55 -35.15 12.30 -19.30 26.10 -41 30.70 -48.20 l8.40 -13.15 9.15 0 9.20 0 0 76.25 0 76.25 -9.75 0 -9.75 0 -0.10 -58.05 -0.15 -58.05 -5.60 8.90 c-6.45 10.30 -11.70 18.60 -26.40 41.80 -13.20 20.80 -19.60 31 -24.50 38.80 -2.10 3.35 -4 6.10 -4.15 6.10 -0.20 0 -3.05 -4.25 -6.35 -9.40 -3.25 -5.15 -9.75 -15.30 -14.45 -22.60 -4.65 -7.30 -12 -18.75 -16.30 -25.50 -4.30 -6.75 -10.70 -16.75 -14.25 -22.25 -3.50 -5.50 -7.05 -11.05 -7.90 -12.35 -0.85 -1.35 -1.65 -2.40 -1.80 -2.40 -0.15 0 -0.30 25.80 -0.30 57.35 l0 57.40 -9.35 0.15 -9.40 0.10 0 -76.25z"/>
  <path d="M205 156.15 c-0.10 -2.60 0 -39.35 0.15 -39.45 0.05 -0.10 4.30 0.25 9.35 0.70 l9.25 0.85 0.15 19.15 0.10 19.10 -9.50 0 c-5.20 0 -9.50 -0.15 -9.50 -0.35z"/>
  <path d="M330 156.40 c-0.25 -3 0.05 -36.65 0.35 -36.95 0.20 -0.20 4.05 -0.55 8.50 -0.70 4.45 -0.20 8.50 -0.40 9 -0.45 0.85 -0.05 0.90 1.10 1.05 19.10 l0.10 19.10 -9.50 0 c-5.20 0 -9.50 -0.05 -9.50 -0.10z"/>
  <path d="M369 156.30 c0 -0.75 20.50 -40.50 21.10 -40.85 0.35 -0.20 3.50 -0.60 6.90 -0.90 3.45 -0.30 7.75 -0.70 9.65 -0.85 2.35 -0.25 3.35 -0.15 3.35 0.25 0 0.30 -4.75 10 -10.60 21.55 l-10.55 21 -9.95 0 c-5.45 0 -9.90 -0.10 -9.90 -0.20z"/>
  <path d="M516.10 154.40 c-2.70 -5.70 -14.10 -28.95 -19.30 -39.35 -3.20 -6.45 -5.75 -11.95 -5.65 -12.25 0.15 -0.30 3.35 -1.10 7.15 -1.75 3.85 -0.65 7.55 -1.30 8.30 -1.40 1.35 -0.25 1.50 -0.05 6.95 11.15 3.05 6.30 6.30 13.05 7.20 14.95 0.90 1.95 4.60 9.55 8.20 16.90 3.60 7.35 6.55 13.50 6.55 13.60 0 0.15 -4.15 0.25 -9.20 0.25 l-9.20 0 -1 -2.10z"/>
  <path d="M575.25 156.10 c0.30 -0.25 3.20 -1.50 6.50 -2.85 14.30 -5.75 36.65 -18.35 54.35 -30.60 l2.35 -1.65 1.35 3.05 c1.55 3.45 5 6.85 9.25 9.20 2.35 1.30 3.20 1.45 6.70 1.50 3.50 0 4.35 -0.20 6.65 -1.45 5.80 -3.25 9.15 -9.70 8.80 -17 -0.25 -4.80 -3.25 -9.65 -7.40 -12.05 -0.75 -0.45 0.05 -1.35 5.50 -6.25 7.45 -6.70 11.60 -11.45 13.70 -15.65 1.75 -3.55 1.90 -5.70 0.45 -7.50 -1.35 -1.75 -3.65 -2.30 -9.95 -2.40 -12.75 -0.15 -24.75 -4.15 -33.35 -11.10 -1.75 -1.40 -3.15 -2.70 -3.15 -2.90 0 -0.25 -0.35 -0.30 -0.75 -0.15 -0.50 0.20 -0.75 0 -0.70 -0.60 0 -0.60 1.30 -1.75 3.55 -3.20 1.95 -1.25 5.30 -3.95 7.45 -6 3.25 -3.15 3.70 -3.45 2.95 -2 -1.10 2.10 -6.35 7.25 -9.60 9.45 -2.55 1.70 -3.40 2.80 -1 1.30 6.15 -3.90 11.45 -8.90 13.90 -13 2.75 -4.75 1.60 -10 -3.20 -14.35 -5.80 -5.25 -18.65 -10.55 -34.85 -14.40 -2.45 -0.55 -6.30 -1.80 -8.50 -2.75 -2.20 -0.95 -6 -2.20 -8.45 -2.75 -8.45 -2 -22.85 -1.20 -29.85 1.70 -0.60 0.25 -1.20 -0.55 -2.60 -3.40 -1.25 -2.50 -2.70 -4.45 -4.40 -6 l-2.55 -2.30 73.30 0 73.30 0 0 78 0 78 -60.85 0 c-33.50 0.05 -62.80 0.15 -65.15 0.30 -2.50 0.15 -4.05 0.10 -3.75 -0.20z"/>
  <path d="M213 108.65 l-8.25 -0.15 0.10 -52.15 0.10 -52.10 9.55 -0.15 9.50 -0.10 -0.10 52.35 -0.15 52.40 -1.25 0 c-0.70 0.05 -4.95 -0.05 -9.50 -0.10z"/>
  <path d="M642.45 100.35 c-8.30 -6.90 -10 -8.85 -7.85 -8.85 0.30 0 5 -2 10.35 -4.45 12.15 -5.55 14.25 -6.35 19.25 -7.60 4.60 -1.05 6.75 -1.15 9.45 -0.40 2.20 0.60 2.30 1.20 0.60 4.85 -1.60 3.50 -3.90 6.25 -8.05 9.60 -1.85 1.50 -4.80 3.95 -6.50 5.40 -2.75 2.30 -3.60 2.70 -6.30 3.15 -1.75 0.30 -3.80 0.85 -4.60 1.25 -0.80 0.40 -1.60 0.70 -1.75 0.65 -0.15 0 -2.25 -1.65 -4.60 -3.60z"/>
  <path d="M329.85 53.45 l0.10 -49.20 9.55 -0.15 9.50 -0.10 -0.10 48.30 -0.15 48.35 -1.25 0.15 c-3.40 0.40 -11.60 1.25 -14.50 1.50 l-3.25 0.30 0.10 -49.15z"/>
  <path d="M416.80 61.40 c8.90 -17.70 19.10 -37.85 22.55 -44.75 l6.35 -12.65 8.05 0 8.05 0 3.70 7.60 c2.05 4.20 6.30 13.05 9.50 19.65 3.25 6.60 6.95 14.25 8.25 17 1.30 2.75 4.75 9.80 7.60 15.70 2.85 5.90 5.05 10.80 4.95 10.95 -0.35 0.30 -16.50 4.05 -16.70 3.90 -0.25 -0.25 -16.15 -32.35 -21 -42.45 -2.35 -4.85 -4.40 -8.85 -4.55 -8.80 -0.15 0 -7.15 13.85 -15.55 30.75 -8.40 16.90 -15.60 31.05 -16 31.40 -0.55 0.50 -19.20 3.85 -21.10 3.80 -0.20 0 6.95 -14.45 15.90 -32.10z"/>
 </g>
 <g fill="#fcb034">
  <path d="M257.90 118.25 c-0.10 -0.10 -3 -0.25 -6.40 -0.25 -3.45 -0.05 -8.70 -0.25 -11.75 -0.50 -3 -0.25 -8.10 -0.55 -11.25 -0.75 -11.15 -0.55 -14.70 -0.90 -31.75 -3 -14.10 -1.70 -17.75 -2.30 -17.75 -2.80 0 -0.25 1.20 -0.45 2.65 -0.40 6.50 0.15 68.95 -0.45 71.85 -0.75 1.80 -0.15 7.10 -0.40 11.75 -0.55 4.70 -0.20 9.85 -0.40 11.50 -0.50 1.65 -0.10 5.05 -0.35 7.50 -0.50 2.50 -0.15 5.90 -0.40 7.65 -0.50 3.35 -0.25 7.10 -0.55 13.35 -1 2.20 -0.15 6.05 -0.50 8.50 -0.75 2.50 -0.25 6.10 -0.60 8 -0.75 1.95 -0.15 4.30 -0.40 5.25 -0.50 0.95 -0.15 6.95 -0.80 13.25 -1.50 6.35 -0.70 12.50 -1.35 13.75 -1.50 1.25 -0.15 3.25 -0.40 4.50 -0.55 11.20 -1.25 39.60 -5.40 56.75 -8.25 90.50 -15.05 163.25 -36.70 189 -56.40 8.20 -6.25 12 -12.75 10.30 -17.60 -0.30 -0.90 -0.50 -1.70 -0.40 -1.75 0.55 -0.55 13.60 3.50 21.60 6.70 9.45 3.75 15.75 10.20 15.75 16.05 0 4.85 -4.60 11.15 -11.75 16.15 -10.15 7.05 -29.25 15.25 -52.50 22.45 -23.90 7.45 -47.50 13.05 -85.25 20.20 -14.60 2.80 -50.05 8.10 -67 10 -3.70 0.45 -10.55 1.25 -15.25 1.80 -12.40 1.45 -17.75 1.95 -51.25 4.70 -1.50 0.10 -5 0.35 -7.75 0.50 -7.15 0.45 -10.60 0.70 -13.75 0.95 -1.50 0.15 -7.25 0.45 -12.75 0.65 -5.50 0.15 -11.10 0.35 -12.50 0.45 -5.05 0.20 -63.65 0.60 -63.85 0.45z"/>
 </g>
</svg>